<svg xmlns="http://www.w3.org/2000/svg" xmlns:xlink="http://www.w3.org/1999/xlink" width="1005" height="669" viewBox="0 0 1005 669">
  <defs>
    <path id="main-a" d="M47.201,0.619 C21.31,0.619 0.321,21.608 0.321,47.499 L0.321,620.12 C0.321,646.011 21.31,667 47.201,667 L281.601,667 C307.491,667 328.48,646.011 328.48,620.12 L328.48,47.499 C328.48,21.608 307.491,0.619 281.601,0.619 L47.201,0.619 Z"/>
  </defs>
  <g fill="none" fill-rule="evenodd" transform="translate(1)">
    <g transform="translate(351 .381)">
      <mask id="main-b" fill="#fff">
        <use xlink:href="#main-a"/>
      </mask>
      <path stroke="#FFF" stroke-width="4" d="M47.201,0.6185 L281.601,0.6185 C307.492,0.6185 328.48,21.6075 328.48,47.4985 L328.48,620.1205 C328.48,646.0115 307.492,666.9995 281.601,666.9995 L47.201,666.9995 C21.31,666.9995 0.322,646.0115 0.322,620.1205 L0.322,47.4985 C0.322,21.6075 21.31,0.6185 47.201,0.6185 Z" mask="url(#main-b)"/>
    </g>
    <path stroke="#FFF" stroke-width="2" d="M398.201,0.9995 L632.601,0.9995 C658.492,0.9995 679.48,21.9885 679.48,47.8795 L679.48,620.5015 C679.48,646.3925 658.492,667.3805 632.601,667.3805 L398.201,667.3805 C372.31,667.3805 351.322,646.3925 351.322,620.5015 L351.322,47.8795 C351.322,21.9885 372.31,0.9995 398.201,0.9995 Z"/>
    <path stroke="#FFF" stroke-width="2" d="M29.1180171,0.6908 L58.8210171,0.6908 C61.1980171,0.6908 63.1390171,2.5878 63.1930171,4.9638 C63.4740171,17.2398 69.6160171,23.5208 81.6180171,23.8068 C101.603017,24.2828 190.740017,23.8138 208.291017,23.8138 C218.876017,23.8138 224.416017,17.5068 224.911017,4.8918 C225.004017,2.5458 226.933017,0.6908 229.282017,0.6908 L259.691017,0.6908 C275.728017,0.6908 288.728017,13.6908 288.728017,29.7278 L288.728017,599.4428 C288.728017,615.4798 275.728017,628.4808 259.691017,628.4808 L29.1180171,628.4808 C13.0810171,628.4808 0.0800170898,615.4798 0.0800170898,599.4428 L0.0800170898,29.7278 C0.0800170898,13.6908 13.0810171,0.6908 29.1180171,0.6908 Z" transform="translate(371 19.381)"/>
    <polygon stroke="#FFF" stroke-width="2" points="372.014 229.959 658.784 229.959 658.784 94.959 372.014 94.959"/>
    <path stroke="#FFF" d="M85,369 C85,391.09165 67.0916501,409 45,409 C22.9083499,409 5,391.09165 5,369 C5,346.90835 22.9083499,329 45,329 C67.0916501,329 85,346.90835 85,369 Z"/>
    <path fill="#858585" d="M191,369 C191,391.09165 173.09165,409 151,409 C128.90835,409 111,391.09165 111,369 C111,346.90835 128.90835,329 151,329 C173.09165,329 191,346.90835 191,369"/>
    <path fill="#FFF" d="M297 369C297 391.09165 279.09165 409 257 409 234.90835 409 217 391.09165 217 369 217 346.90835 234.90835 329 257 329 279.09165 329 297 346.90835 297 369M564.9012 631.459L465.9012 631.459C463.6922 631.459 461.9012 629.668 461.9012 627.459 461.9012 625.25 463.6922 623.459 465.9012 623.459L564.9012 623.459C567.1102 623.459 568.9012 625.25 568.9012 627.459 568.9012 629.668 567.1102 631.459 564.9012 631.459"/>
    <g transform="translate(754 49)">
      <polygon fill="#000" points="0 199.508 199.123 199.508 199.123 0 0 0"/>
      <polygon stroke="#FFF" stroke-width="2" points="0 199.508 199.123 199.508 199.123 0 0 0"/>
      <path stroke="#FFF" stroke-linecap="round" stroke-width="2" d="M199.122869 0L0 199.509M199.122869 199.508L0 0"/>
    </g>
    <g stroke="#FFF" stroke-linecap="round" stroke-width="2" transform="translate(199 157)">
      <path d="M0 57L116 57M1 57L117 57M13 91L108 24M40 110L80 1M74 112L44 0M104 94L16 19"/>
    </g>
    <path stroke="#FFF" stroke-width="2" d="M371.569538 229.959L658.339918 94.959M658.339918 229.959L371.569538 94.959"/>
    <polygon stroke="#FFF" stroke-width="2" points="387.453 281.959 514.453 281.959 514.453 253.959 387.453 253.959"/>
    <polygon stroke="#FFF" stroke-width="2" points="387.453 451.959 644.453 451.959 644.453 297.959 387.453 297.959"/>
    <path stroke="#FFF" stroke-width="2" d="M437.453,500.709 C437.453,513.412 427.156,523.709 414.453,523.709 C401.75,523.709 391.453,513.412 391.453,500.709 C391.453,488.006 401.75,477.709 414.453,477.709 C427.156,477.709 437.453,488.006 437.453,500.709 Z"/>
    <polygon stroke="#FFF" stroke-width="2" points="451.453 522.209 644.453 522.209 644.453 479.209 451.453 479.209"/>
    <path stroke="#FFF" stroke-width="2" d="M429.952 601L395.049 601C392.813 601 391 599.188 391 596.952L391 562.048C391 559.812 392.813 558 395.049 558L429.952 558C432.188 558 434 559.812 434 562.048L434 596.952C434 599.188 432.188 601 429.952 601zM498.952 600.959L464.049 600.959C461.813 600.959 460 599.147 460 596.911L460 562.007C460 559.771 461.813 557.959 464.049 557.959L498.952 557.959C501.188 557.959 503 559.771 503 562.007L503 596.911C503 599.147 501.188 600.959 498.952 600.959zM566.952 600.959L532.049 600.959C529.813 600.959 528 599.147 528 596.911L528 562.007C528 559.771 529.813 557.959 532.049 557.959L566.952 557.959C569.188 557.959 571 559.771 571 562.007L571 596.911C571 599.147 569.188 600.959 566.952 600.959zM635.952 601L601.049 601C598.813 601 597 599.188 597 596.952L597 562.048C597 559.812 598.813 558 601.049 558L635.952 558C638.188 558 640 559.812 640 562.048L640 596.952C640 599.188 638.188 601 635.952 601z"/>
    <g transform="translate(0 175)">
      <path fill="#000" d="M167,44.5 C167,44.9405941 129.615857,89 83.5,89 C37.3841429,89 0,44.0594059 0,44.5 C0,44.9405941 37.3841429,0 83.5,0 C129.615857,0 167,44.0594059 167,44.5"/>
      <path stroke="#FFF" stroke-linecap="round" stroke-linejoin="round" stroke-width="2" d="M167,44.5 C167,44.9405941 129.615857,89 83.5,89 C37.3841429,89 0,44.0594059 0,44.5 C0,44.9405941 37.3841429,0 83.5,0 C129.615857,0 167,44.0594059 167,44.5 Z"/>
      <path fill="#000" d="M110,44.5 C110,59.1354999 98.1356973,71 83.500441,71 C68.8643027,71 57,59.1354999 57,44.5 C57,29.8645001 68.8643027,18 83.500441,18 C98.1356973,18 110,29.8645001 110,44.5"/>
      <path stroke="#FFF" stroke-linecap="round" stroke-linejoin="round" stroke-width="2" d="M110,44.5 C110,59.1354999 98.1356973,71 83.500441,71 C68.8643027,71 57,59.1354999 57,44.5 C57,29.8645001 68.8643027,18 83.500441,18 C98.1356973,18 110,29.8645001 110,44.5 Z"/>
    </g>
    <text fill="#FFF" font-family="NotoSansCJKkr-Black, Noto Sans CJK KR" font-size="80" font-weight="700">
      <tspan x=".36" y="109">120Hz</tspan>
    </text>
    <text fill="#FFF" font-family="NotoSansCJKkr-Black, Noto Sans CJK KR" font-size="100" font-weight="700">
      <tspan x="749" y="386">한</tspan>
    </text>
    <path stroke="#FFF" stroke-width="2" d="M922.2,310.1 L922.2,322.6 L867,322.6 L867,310.1 L886.5,310.1 L886.5,301 L902.7,301 L902.7,310.1 L922.2,310.1 Z M886.7,343.4 C886.7,347.7 890,349.7 894.6,349.7 C899.2,349.7 902.5,347.7 902.5,343.4 C902.5,339.2 899.2,337.2 894.6,337.2 C890,337.2 886.7,339.2 886.7,343.4 Z M918,343.4 C918,354.3 908.2,361.9 894.6,361.9 C881,361.9 871.2,354.3 871.2,343.4 C871.2,332.7 881,325 894.6,325 C908.2,325 918,332.7 918,343.4 Z M896.1,366.2 L896.1,380.9 L944.4,380.9 L944.4,393.6 L879.9,393.6 L879.9,366.2 L896.1,366.2 Z M941.6,328.6 L953.3,328.6 L953.3,341.8 L941.6,341.8 L941.6,371.3 L925.4,371.3 L925.4,301.2 L941.6,301.2 L941.6,328.6 Z"/>
    <rect width="11" height="11" x="947" y="243" fill="#FFF"/>
    <rect width="11" height="11" x="947" y="43" fill="#FFF"/>
    <rect width="11" height="11" x="749" y="43" fill="#FFF"/>
    <rect width="11" height="11" x="849" y="43" fill="#FFF"/>
    <rect width="11" height="11" x="849" y="242" fill="#FFF"/>
    <rect width="11" height="11" x="749" y="143" fill="#FFF"/>
    <rect width="11" height="11" x="947" y="143" fill="#FFF"/>
    <rect width="11" height="11" x="749" y="242" fill="#FFF"/>
    <rect width="248" height="22" x="755" y="449" stroke="#FFF" stroke-width="2" rx="6"/>
    <rect width="250" height="24" x="754" y="498" fill="#FFF" rx="6"/>
    <rect width="167" height="24" x="755" y="599" fill="#FFF" rx="6"/>
    <rect width="198" height="22" x="755" y="550" stroke="#FFF" stroke-width="2" rx="6"/>
    <g stroke="#F0EFEF" transform="translate(133 471)">
      <path stroke-linecap="square" d="M3.33333333 3.33333333L156.666667 156.666667M3.33333333 156.666667L156.666667 3.33333333"/>
      <rect width="132.333" height="92.333" x="13.833" y="33.833" rx="6"/>
      <rect width="132.333" height="92.333" x="13.833" y="33.833" rx="6" transform="rotate(-90 80 80)"/>
      <circle cx="80" cy="80" r="66.167"/>
      <circle cx="80" cy="80" r="46.167"/>
      <rect width="159" height="159" x=".5" y=".5" rx="6"/>
    </g>
  </g>
</svg>
