<?xml version="1.0" encoding="UTF-8"?>
<svg width="851px" height="566px" viewBox="0 0 851 566" version="1.1" xmlns="http://www.w3.org/2000/svg" xmlns:xlink="http://www.w3.org/1999/xlink">
    <!-- Generator: Sketch 49.3 (51167) - http://www.bohemiancoding.com/sketch -->
    <title>Main</title>
    <desc>Created with Sketch.</desc>
    <defs>
        <path d="M40.0275957,0.52434033 C18.0713982,0.52434033 0.272215805,18.3036282 0.272215805,40.2352849 L0.272215805,525.289055 C0.272215805,547.220712 18.0713982,565 40.0275957,565 L238.804495,565 C260.759845,565 278.559027,547.220712 278.559027,525.289055 L278.559027,40.2352849 C278.559027,18.3036282 260.759845,0.52434033 238.804495,0.52434033 L40.0275957,0.52434033 Z" id="path-1"></path>
    </defs>
    <g id="Desktop" stroke="none" stroke-width="1" fill="none" fill-rule="evenodd">
        <g id="Home" transform="translate(-294.000000, -230.000000)">
            <g id="Main" transform="translate(295.000000, 230.000000)">
                <g id="Group-3" transform="translate(297.000000, 0.000000)">
                    <mask id="mask-2" fill="white">
                        <use xlink:href="#path-1"></use>
                    </mask>
                    <g id="Clip-2"></g>
                    <path d="M40.0275957,0.523916792 L238.804495,0.523916792 C260.760693,0.523916792 278.559027,18.3032046 278.559027,40.2348613 L278.559027,525.289479 C278.559027,547.221136 260.760693,564.999576 238.804495,564.999576 L40.0275957,564.999576 C18.0713982,564.999576 0.27306383,547.221136 0.27306383,525.289479 L0.27306383,40.2348613 C0.27306383,18.3032046 18.0713982,0.523916792 40.0275957,0.523916792 Z" id="Stroke-1" stroke="#FFFFFF" stroke-width="4" mask="url(#mask-2)"></path>
                </g>
                <path d="M336.713681,1 L535.286319,1 C557.219955,1 575,18.764306 575,40.6774818 L575,525.323365 C575,547.23654 557.219955,565 535.286319,565 L336.713681,565 C314.780045,565 297,547.23654 297,525.323365 L297,40.6774818 C297,18.764306 314.780045,1 336.713681,1 Z" id="Stroke-4" stroke="#FFFFFF" stroke-width="2"></path>
                <g id="Group-11" transform="translate(314.000000, 16.000000)" stroke="#FFFFFF" stroke-width="2">
                    <path d="M24.6848242,0.585367886 L49.8655681,0.585367886 C51.8806719,0.585367886 53.5261564,2.19284165 53.5719349,4.2062089 C53.8101529,14.6086064 59.0170387,19.93098 69.1917446,20.1733297 C86.1340456,20.5766811 161.700014,20.1792614 176.57889,20.1792614 C185.552333,20.1792614 190.248873,14.834856 190.668509,4.14519777 C190.74735,2.15725183 192.382662,0.585367886 194.374028,0.585367886 L220.153284,0.585367886 C233.748665,0.585367886 244.769426,11.6012661 244.769426,25.1906477 L244.769426,507.953915 C244.769426,521.543296 233.748665,532.560042 220.153284,532.560042 L24.6848242,532.560042 C11.0894436,532.560042 0.0678345571,521.543296 0.0678345571,507.953915 L0.0678345571,25.1906477 C0.0678345571,11.6012661 11.0894436,0.585367886 24.6848242,0.585367886 Z" id="Stroke-9"></path>
                </g>
                <polygon id="Stroke-24" stroke="#FFFFFF" stroke-width="2" points="315 194 558 194 558 80 315 80"></polygon>
                <path d="M72,313 C72,331.777903 56.7779026,347 38,347 C19.2220974,347 4,331.777903 4,313 C4,294.222097 19.2220974,279 38,279 C56.7779026,279 72,294.222097 72,313 Z" id="Stroke-29" stroke="#FFFFFF"></path>
                <path d="M162,313 C162,331.777903 146.777903,347 128,347 C109.222097,347 94,331.777903 94,313 C94,294.222097 109.222097,279 128,279 C146.777903,279 162,294.222097 162,313" id="Fill-30" fill="#858585"></path>
                <path d="M252,313 C252,331.777903 236.777903,347 218,347 C199.222097,347 184,331.777903 184,313 C184,294.222097 199.222097,279 218,279 C236.777903,279 252,294.222097 252,313" id="Fill-32" fill="#FFFFFF"></path>
                <path d="M478.598131,535 L394.401869,535 C392.523187,535 391,533.432875 391,531.5 C391,529.567125 392.523187,528 394.401869,528 L478.598131,528 C480.476813,528 482,529.567125 482,531.5 C482,533.432875 480.476813,535 478.598131,535" id="Fill-34" fill="#FFFFFF"></path>
                <g id="Group" transform="translate(638.000000, 41.000000)">
                    <polygon id="Fill-54" fill="#000000" points="0 168.58426 168.258825 168.58426 168.258825 0 0 0"></polygon>
                    <polygon id="Stroke-55" stroke="#FFFFFF" stroke-width="2" points="0 168.58426 168.258825 168.58426 168.258825 0 0 0"></polygon>
                    <path d="M168.258825,0 L0,168.585105" id="Stroke-56" stroke="#FFFFFF" stroke-width="2" stroke-linecap="round"></path>
                    <path d="M168.258825,168.58426 L0,0" id="Stroke-57" stroke="#FFFFFF" stroke-width="2" stroke-linecap="round"></path>
                </g>
                <g id="Group-4" transform="translate(168.000000, 133.000000)" stroke="#FFFFFF" stroke-linecap="round" stroke-width="2">
                    <path d="M0,48.3482143 L98.1538462,48.3482143" id="Stroke-58"></path>
                    <path d="M0.846153846,48.3482143 L99,48.3482143" id="Stroke-59"></path>
                    <path d="M11,77.1875 L91.3846154,20.3571429" id="Stroke-60"></path>
                    <path d="M33.8461538,93.3035714 L67.6923077,0.848214286" id="Stroke-61"></path>
                    <path d="M62.6153846,95 L37.2307692,0" id="Stroke-62"></path>
                    <path d="M88,79.7321429 L13.5384615,16.1160714" id="Stroke-63"></path>
                </g>
                <path d="M315,194 L558,80" id="Stroke-76" stroke="#FFFFFF" stroke-width="2"></path>
                <path d="M558,194 L315,80" id="Stroke-77" stroke="#FFFFFF" stroke-width="2"></path>
                <polygon id="Stroke-78" stroke="#FFFFFF" stroke-width="2" points="328 239 436 239 436 215 328 215"></polygon>
                <polygon id="Stroke-79" stroke="#FFFFFF" stroke-width="2" points="328 382 546 382 546 252 328 252"></polygon>
                <path d="M370,424.5 C370,435.269935 361.269935,444 350.5,444 C339.730065,444 331,435.269935 331,424.5 C331,413.730065 339.730065,405 350.5,405 C361.269935,405 370,413.730065 370,424.5 Z" id="Stroke-80" stroke="#FFFFFF" stroke-width="2"></path>
                <polygon id="Stroke-81" stroke="#FFFFFF" stroke-width="2" points="382 442 545 442 545 406 382 406"></polygon>
                <path d="M363.610977,509 L334.38986,509 C332.51786,509 331,507.482977 331,505.610977 L331,476.389023 C331,474.517023 332.51786,473 334.38986,473 L363.610977,473 C365.482977,473 367,474.517023 367,476.389023 L367,505.610977 C367,507.482977 365.482977,509 363.610977,509 Z" id="Stroke-82" stroke="#FFFFFF" stroke-width="2"></path>
                <path d="M421.610977,508 L392.38986,508 C390.51786,508 389,506.482977 389,504.610977 L389,475.389023 C389,473.517023 390.51786,472 392.38986,472 L421.610977,472 C423.482977,472 425,473.517023 425,475.389023 L425,504.610977 C425,506.482977 423.482977,508 421.610977,508 Z" id="Stroke-83" stroke="#FFFFFF" stroke-width="2"></path>
                <path d="M479.610977,508 L450.38986,508 C448.51786,508 447,506.482977 447,504.610977 L447,475.389023 C447,473.517023 448.51786,472 450.38986,472 L479.610977,472 C481.482977,472 483,473.517023 483,475.389023 L483,504.610977 C483,506.482977 481.482977,508 479.610977,508 Z" id="Stroke-84" stroke="#FFFFFF" stroke-width="2"></path>
                <path d="M537.610977,509 L508.38986,509 C506.51786,509 505,507.482977 505,505.610977 L505,476.389023 C505,474.517023 506.51786,473 508.38986,473 L537.610977,473 C539.482977,473 541,474.517023 541,476.389023 L541,505.610977 C541,507.482977 539.482977,509 537.610977,509 Z" id="Stroke-85" stroke="#FFFFFF" stroke-width="2"></path>
                <g id="Group-2" transform="translate(0.000000, 148.000000)">
                    <path d="M141,37.5 C141,37.8712871 109.436143,75 70.5,75 C31.5638571,75 0,37.1287129 0,37.5 C0,37.8712871 31.5638571,0 70.5,0 C109.436143,0 141,37.1287129 141,37.5" id="Fill-88" fill="#000000"></path>
                    <path d="M141,37.5 C141,37.8712871 109.436143,75 70.5,75 C31.5638571,75 0,37.1287129 0,37.5 C0,37.8712871 31.5638571,0 70.5,0 C109.436143,0 141,37.1287129 141,37.5 Z" id="Stroke-89" stroke="#FFFFFF" stroke-width="2" stroke-linecap="round" stroke-linejoin="round"></path>
                    <path d="M92.8742515,37.5 C92.8742515,49.8332864 82.8570857,59.8314607 70.5003723,59.8314607 C58.1429143,59.8314607 48.1257485,49.8332864 48.1257485,37.5 C48.1257485,25.1667136 58.1429143,15.1685393 70.5003723,15.1685393 C82.8570857,15.1685393 92.8742515,25.1667136 92.8742515,37.5" id="Fill-90" fill="#000000"></path>
                    <path d="M92.8742515,37.5 C92.8742515,49.8332864 82.8570857,59.8314607 70.5003723,59.8314607 C58.1429143,59.8314607 48.1257485,49.8332864 48.1257485,37.5 C48.1257485,25.1667136 58.1429143,15.1685393 70.5003723,15.1685393 C82.8570857,15.1685393 92.8742515,25.1667136 92.8742515,37.5 Z" id="Stroke-91" stroke="#FFFFFF" stroke-width="2" stroke-linecap="round" stroke-linejoin="round"></path>
                </g>
                <path d="M22.6,94 L22.6,82.48 L35.24,82.48 L35.24,48.64 L24.28,48.64 L24.28,39.84 C30.68,38.64 34.84,37.04 39,34.48 L49.48,34.48 L49.48,82.48 L60.2,82.48 L60.2,94 L22.6,94 Z M68.44,94 L68.44,85.84 C83.32,72.32 93.32,61.52 93.32,52.88 C93.32,47.44 90.28,44.48 85.56,44.48 C81.48,44.48 78.28,47.2 75.48,50.24 L67.72,42.56 C73.56,36.4 79,33.36 87.48,33.36 C99,33.36 107,40.72 107,52.08 C107,62.32 98.2,73.6 89.08,82.8 C92.04,82.4 96.12,82 98.76,82 L109.72,82 L109.72,94 L68.44,94 Z M138.12,95.12 C125.56,95.12 117.08,84.4 117.08,63.92 C117.08,43.44 125.56,33.36 138.12,33.36 C150.68,33.36 159.24,43.6 159.24,63.92 C159.24,84.4 150.68,95.12 138.12,95.12 Z M138.12,84.08 C142.36,84.08 145.8,80.24 145.8,63.92 C145.8,47.68 142.36,44.32 138.12,44.32 C133.88,44.32 130.52,47.68 130.52,63.92 C130.52,80.24 133.88,84.08 138.12,84.08 Z M169.4,94 L169.4,34.48 L183.72,34.48 L183.72,57.12 L203.32,57.12 L203.32,34.48 L217.48,34.48 L217.48,94 L203.32,94 L203.32,69.52 L183.72,69.52 L183.72,94 L169.4,94 Z M227.96,94 L227.96,86.4 L246.44,59.6 L230.04,59.6 L230.04,48.48 L264.2,48.48 L264.2,56.08 L245.72,82.88 L264.76,82.88 L264.76,94 L227.96,94 Z" id="120Hz" fill="#FFFFFF"></path>
                <text id="한" font-family="NotoSansCJKkr-Black, Noto Sans CJK KR" font-size="100" font-weight="700" fill="#FFFFFF">
                    <tspan x="634" y="333">한</tspan>
                </text>
                <path d="M780.692932,262.665227 L780.692932,273.194384 L734,273.194384 L734,262.665227 L750.494786,262.665227 L750.494786,255 L764.198146,255 L764.198146,262.665227 L780.692932,262.665227 Z M750.663963,290.714903 C750.663963,294.336933 753.455388,296.021598 757.346466,296.021598 C761.237543,296.021598 764.028969,294.336933 764.028969,290.714903 C764.028969,287.177106 761.237543,285.492441 757.346466,285.492441 C753.455388,285.492441 750.663963,287.177106 750.663963,290.714903 Z M777.140209,290.714903 C777.140209,299.896328 768.850521,306.298056 757.346466,306.298056 C745.84241,306.298056 737.552723,299.896328 737.552723,290.714903 C737.552723,281.701944 745.84241,275.215983 757.346466,275.215983 C768.850521,275.215983 777.140209,281.701944 777.140209,290.714903 Z M758.615295,309.920086 L758.615295,322.302376 L799.471611,322.302376 L799.471611,333 L744.911935,333 L744.911935,309.920086 L758.615295,309.920086 Z M797.103129,278.24838 L807,278.24838 L807,289.367171 L797.103129,289.367171 L797.103129,314.215983 L783.399768,314.215983 L783.399768,255.168467 L797.103129,255.168467 L797.103129,278.24838 Z" id="한" stroke="#FFFFFF" stroke-width="2"></path>
                <rect id="Rectangle-5" fill="#FFFFFF" x="802" y="206" width="9" height="9"></rect>
                <rect id="Rectangle-5" fill="#FFFFFF" x="802" y="36" width="9" height="9"></rect>
                <rect id="Rectangle-5" fill="#FFFFFF" x="634" y="36" width="9" height="9"></rect>
                <rect id="Rectangle-5" fill="#FFFFFF" x="719" y="36" width="9" height="9"></rect>
                <rect id="Rectangle-5" fill="#FFFFFF" x="719" y="205" width="9" height="9"></rect>
                <rect id="Rectangle-5" fill="#FFFFFF" x="634" y="121" width="9" height="9"></rect>
                <rect id="Rectangle-5" fill="#FFFFFF" x="802" y="121" width="9" height="9"></rect>
                <rect id="Rectangle-5" fill="#FFFFFF" x="634" y="205" width="9" height="9"></rect>
                <rect id="Rectangle-4" stroke="#FFFFFF" stroke-width="2" x="639" y="380" width="210" height="18" rx="6"></rect>
                <rect id="Rectangle-4" fill="#FFFFFF" x="638" y="422" width="212" height="20" rx="6"></rect>
                <rect id="Rectangle-4" fill="#FFFFFF" x="639" y="507" width="141" height="20" rx="6"></rect>
                <rect id="Rectangle-4" stroke="#FFFFFF" stroke-width="2" x="639" y="466" width="167" height="18" rx="6"></rect>
                <g id="Grid" transform="translate(113.000000, 399.000000)" stroke="#F0EFEF">
                    <path d="M2.8125,2.8125 L132.1875,132.1875" stroke-linecap="square"></path>
                    <path d="M2.8125,132.1875 L132.1875,2.8125" stroke-linecap="square"></path>
                    <rect x="11.75" y="28.625" width="111.5" height="77.75" rx="6"></rect>
                    <rect transform="translate(67.500000, 67.500000) rotate(-90.000000) translate(-67.500000, -67.500000) " x="11.75" y="28.625" width="111.5" height="77.75" rx="6"></rect>
                    <circle cx="67.5" cy="67.5" r="55.75"></circle>
                    <circle cx="67.5" cy="67.5" r="38.875"></circle>
                    <rect id="Rectangle" x="0.5" y="0.5" width="134" height="134" rx="6"></rect>
                </g>
            </g>
        </g>
    </g>
</svg>