<svg xmlns="http://www.w3.org/2000/svg" xmlns:xlink="http://www.w3.org/1999/xlink" width="1182" height="799" viewBox="0 0 1182 799">
  <defs>
    <path id="main-a" d="M56.5095469,0.740245172 C25.5125621,0.740245172 0.384304667,25.8404163 0.384304667,56.8027551 L0.384304667,741.584549 C0.384304667,772.546888 25.5125621,797.647059 56.5095469,797.647059 L337.135758,797.647059 C368.131546,797.647059 393.259803,772.546888 393.259803,741.584549 L393.259803,56.8027551 C393.259803,25.8404163 368.131546,0.740245172 337.135758,0.740245172 L56.5095469,0.740245172 Z"/>
  </defs>
  <g fill="none" fill-rule="evenodd" transform="translate(-2)">
    <rect width="1200" height="800"/>
    <g transform="translate(403.294)">
      <mask id="main-b" fill="#fff">
        <use xlink:href="#main-a"/>
      </mask>
      <path stroke="#FFF" stroke-width="4" d="M56.5095469,0.739647235 L337.135758,0.739647235 C368.132743,0.739647235 393.259803,25.8398183 393.259803,56.8021572 L393.259803,741.585147 C393.259803,772.547486 368.132743,797.646461 337.135758,797.646461 L56.5095469,797.646461 C25.5125621,797.646461 0.385501877,772.547486 0.385501877,741.585147 L0.385501877,56.8021572 C0.385501877,25.8398183 25.5125621,0.739647235 56.5095469,0.739647235 Z" mask="url(#main-b)"/>
    </g>
    <path stroke="#FFF" stroke-width="2" d="M459.36049,1.41176471 L739.698333,1.41176471 C770.663466,1.41176471 795.764706,26.4907849 795.764706,57.4270331 L795.764706,741.632985 C795.764706,772.569233 770.663466,797.647059 739.698333,797.647059 L459.36049,797.647059 C428.395358,797.647059 403.294118,772.569233 403.294118,741.632985 L403.294118,57.4270331 C403.294118,26.4907849 428.395358,1.41176471 459.36049,1.41176471 Z"/>
    <path stroke="#FFF" stroke-width="2" d="M34.8491635,0.826401721 L70.3984491,0.826401721 C73.2433015,0.826401721 75.5663384,3.09577645 75.6309669,5.93817727 C75.9672747,20.6239149 83.3181723,28.1378541 97.682463,28.4799949 C121.601006,29.0494321 228.282373,28.488369 249.287845,28.488369 C261.956235,28.488369 268.586644,20.9433261 269.179072,5.85204392 C269.290377,3.04553199 271.599052,0.826401721 274.410393,0.826401721 L310.804637,0.826401721 C329.998115,0.826401721 345.556837,16.3782581 345.556837,35.5632673 L345.556837,717.111409 C345.556837,736.296418 329.998115,751.849471 310.804637,751.849471 L34.8491635,751.849471 C15.655685,751.849471 0.0957664336,736.296418 0.0957664336,717.111409 L0.0957664336,35.5632673 C0.0957664336,16.3782581 15.655685,0.826401721 34.8491635,0.826401721 Z" transform="translate(427.294 22.588)"/>
    <polygon stroke="#FFF" stroke-width="2" points="428.706 273.882 771.765 273.882 771.765 112.941 428.706 112.941"/>
    <path stroke="#FFF" d="M102,442 C102,468.50998 80.5099801,490 54,490 C27.4900199,490 6,468.50998 6,442 C6,415.49002 27.4900199,394 54,394 C80.5099801,394 102,415.49002 102,442 Z"/>
    <path fill="#858585" d="M229,442 C229,468.50998 207.50998,490 181,490 C154.49002,490 133,468.50998 133,442 C133,415.49002 154.49002,394 181,394 C207.50998,394 229,415.49002 229,442"/>
    <path fill="#FFF" d="M356 442C356 468.50998 334.50998 490 308 490 281.49002 490 260 468.50998 260 442 260 415.49002 281.49002 394 308 394 334.50998 394 356 415.49002 356 442M659.667949 755.294118L540.802639 755.294118C538.150382 755.294118 536 753.081706 536 750.352941 536 747.624176 538.150382 745.411765 540.802639 745.411765L659.667949 745.411765C662.320207 745.411765 664.470588 747.624176 664.470588 750.352941 664.470588 753.081706 662.320207 755.294118 659.667949 755.294118"/>
    <g transform="translate(884.706 57.882)">
      <polygon fill="#000" points="0 238.001 237.542 238.001 237.542 0 0 0"/>
      <polygon stroke="#FFF" stroke-width="2" points="0 238.001 237.542 238.001 237.542 0 0 0"/>
      <path stroke="#FFF" stroke-linecap="round" stroke-width="2" d="M237.54187 0L0 238.002501M237.54187 238.001308L0 0"/>
    </g>
    <g stroke="#FFF" stroke-linecap="round" stroke-width="2" transform="translate(237 188)">
      <path d="M0 68.2563025L138.570136 68.2563025M1.19457014 68.2563025L139.764706 68.2563025M15.5294118 108.970588L129.013575 28.7394958M47.7828054 131.722689L95.5656109 1.19747899M88.39819 134.117647L52.561086 0M124.235294 112.563025L19.1131222 22.7521008"/>
    </g>
    <path stroke="#FFF" stroke-width="2" d="M428.705882 273.882353L771.764706 112.941176M771.764706 273.882353L428.705882 112.941176"/>
    <polygon stroke="#FFF" stroke-width="2" points="447.059 337.412 599.529 337.412 599.529 303.529 447.059 303.529"/>
    <polygon stroke="#FFF" stroke-width="2" points="447.059 539.294 754.824 539.294 754.824 355.765 447.059 355.765"/>
    <path stroke="#FFF" stroke-width="2" d="M506.352941,599.294118 C506.352941,614.498731 494.028143,626.823529 478.823529,626.823529 C463.618916,626.823529 451.294118,614.498731 451.294118,599.294118 C451.294118,584.089504 463.618916,571.764706 478.823529,571.764706 C494.028143,571.764706 506.352941,584.089504 506.352941,599.294118 Z"/>
    <polygon stroke="#FFF" stroke-width="2" points="523.294 624 753.412 624 753.412 573.176 523.294 573.176"/>
    <path stroke="#FFF" stroke-width="2" d="M497.333144 718.588235L456.079803 718.588235C453.436979 718.588235 451.294118 716.446555 451.294118 713.803732L451.294118 672.549209C451.294118 669.906386 453.436979 667.764706 456.079803 667.764706L497.333144 667.764706C499.975967 667.764706 502.117647 669.906386 502.117647 672.549209L502.117647 713.803732C502.117647 716.446555 499.975967 718.588235 497.333144 718.588235zM579.215497 717.176471L537.962156 717.176471C535.319332 717.176471 533.176471 715.034791 533.176471 712.391967L533.176471 671.137445C533.176471 668.494621 535.319332 666.352941 537.962156 666.352941L579.215497 666.352941C581.85832 666.352941 584 668.494621 584 671.137445L584 712.391967C584 715.034791 581.85832 717.176471 579.215497 717.176471zM661.09785 717.176471L619.844509 717.176471C617.201685 717.176471 615.058824 715.034791 615.058824 712.391967L615.058824 671.137445C615.058824 668.494621 617.201685 666.352941 619.844509 666.352941L661.09785 666.352941C663.740673 666.352941 665.882353 668.494621 665.882353 671.137445L665.882353 712.391967C665.882353 715.034791 663.740673 717.176471 661.09785 717.176471zM742.980202 718.588235L701.726862 718.588235C699.084038 718.588235 696.941176 716.446555 696.941176 713.803732L696.941176 672.549209C696.941176 669.906386 699.084038 667.764706 701.726862 667.764706L742.980202 667.764706C745.623026 667.764706 747.764706 669.906386 747.764706 672.549209L747.764706 713.803732C747.764706 716.446555 745.623026 718.588235 742.980202 718.588235z"/>
    <g transform="translate(3 209)">
      <path fill="#000" d="M199.058824,52.9411765 C199.058824,53.4653465 154.498084,105.882353 99.5294118,105.882353 C44.5607395,105.882353 0,52.4170064 0,52.9411765 C0,53.4653465 44.5607395,0 99.5294118,0 C154.498084,0 199.058824,52.4170064 199.058824,52.9411765"/>
      <path stroke="#FFF" stroke-linecap="round" stroke-linejoin="round" stroke-width="2" d="M199.058824,52.9411765 C199.058824,53.4653465 154.498084,105.882353 99.5294118,105.882353 C44.5607395,105.882353 0,52.4170064 0,52.9411765 C0,53.4653465 44.5607395,0 99.5294118,0 C154.498084,0 199.058824,52.4170064 199.058824,52.9411765 Z"/>
      <path fill="#000" d="M131.11659,52.9411765 C131.11659,70.3528749 116.974709,84.4679445 99.5299374,84.4679445 C82.0841143,84.4679445 67.9422332,70.3528749 67.9422332,52.9411765 C67.9422332,35.529478 82.0841143,21.4144085 99.5299374,21.4144085 C116.974709,21.4144085 131.11659,35.529478 131.11659,52.9411765"/>
      <path stroke="#FFF" stroke-linecap="round" stroke-linejoin="round" stroke-width="2" d="M131.11659,52.9411765 C131.11659,70.3528749 116.974709,84.4679445 99.5299374,84.4679445 C82.0841143,84.4679445 67.9422332,70.3528749 67.9422332,52.9411765 C67.9422332,35.529478 82.0841143,21.4144085 99.5299374,21.4144085 C116.974709,21.4144085 131.11659,35.529478 131.11659,52.9411765 Z"/>
    </g>
    <path fill="#FFF" d="M32 132.609412L32 116.345882 49.8447059 116.345882 49.8447059 68.5717647 34.3717647 68.5717647 34.3717647 56.1482353C43.4070588 54.4541176 49.28 52.1952941 55.1529412 48.5811765L69.9482353 48.5811765 69.9482353 116.345882 85.0823529 116.345882 85.0823529 132.609412 32 132.609412zM96.7152941 132.609412L96.7152941 121.089412C117.722353 102.002353 131.84 86.7552941 131.84 74.5576471 131.84 66.8776471 127.548235 62.6988235 120.884706 62.6988235 115.124706 62.6988235 110.607059 66.5388235 106.654118 70.8305882L95.6988235 59.9882353C103.943529 51.2917647 111.623529 47 123.595294 47 139.858824 47 151.152941 57.3905882 151.152941 73.4282353 151.152941 87.8847059 138.729412 103.809412 125.854118 116.797647 130.032941 116.232941 135.792941 115.668235 139.52 115.668235L154.992941 115.668235 154.992941 132.609412 96.7152941 132.609412zM195.087059 134.190588C177.355294 134.190588 165.383529 119.056471 165.383529 90.1435294 165.383529 61.2305882 177.355294 47 195.087059 47 212.818824 47 224.903529 61.4564706 224.903529 90.1435294 224.903529 119.056471 212.818824 134.190588 195.087059 134.190588zM195.087059 118.604706C201.072941 118.604706 205.929412 113.183529 205.929412 90.1435294 205.929412 67.2164706 201.072941 62.4729412 195.087059 62.4729412 189.101176 62.4729412 184.357647 67.2164706 184.357647 90.1435294 184.357647 113.183529 189.101176 118.604706 195.087059 118.604706zM239.247059 132.609412L239.247059 48.5811765 259.463529 48.5811765 259.463529 80.5435294 287.134118 80.5435294 287.134118 48.5811765 307.124706 48.5811765 307.124706 132.609412 287.134118 132.609412 287.134118 98.0494118 259.463529 98.0494118 259.463529 132.609412 239.247059 132.609412zM321.92 132.609412L321.92 121.88 348.009412 84.0447059 324.856471 84.0447059 324.856471 68.3458824 373.082353 68.3458824 373.082353 79.0752941 346.992941 116.910588 373.872941 116.910588 373.872941 132.609412 321.92 132.609412zM953.515294 374.315294L953.515294 390.197647 883.378824 390.197647 883.378824 374.315294 908.155294 374.315294 908.155294 362.752941 928.738824 362.752941 928.738824 374.315294 953.515294 374.315294zM908.409412 416.625882C908.409412 422.089412 912.602353 424.630588 918.447059 424.630588 924.291765 424.630588 928.484706 422.089412 928.484706 416.625882 928.484706 411.289412 924.291765 408.748235 918.447059 408.748235 912.602353 408.748235 908.409412 411.289412 908.409412 416.625882zM948.178824 416.625882C948.178824 430.475294 935.727059 440.131765 918.447059 440.131765 901.167059 440.131765 888.715294 430.475294 888.715294 416.625882 888.715294 403.030588 901.167059 393.247059 918.447059 393.247059 935.727059 393.247059 948.178824 403.030588 948.178824 416.625882zM920.352941 445.595294L920.352941 464.272941 981.722353 464.272941 981.722353 480.409412 899.769412 480.409412 899.769412 445.595294 920.352941 445.595294zM978.164706 397.821176L993.030588 397.821176 993.030588 414.592941 978.164706 414.592941 978.164706 452.075294 957.581176 452.075294 957.581176 363.007059 978.164706 363.007059 978.164706 397.821176z"/>
    <path stroke="#FFF" d="M1081.90118,374.385882 L1081.90118,390.268235 L1011.76471,390.268235 L1011.76471,374.385882 L1036.54118,374.385882 L1036.54118,362.823529 L1057.12471,362.823529 L1057.12471,374.385882 L1081.90118,374.385882 Z M1036.79529,416.696471 C1036.79529,422.16 1040.98824,424.701176 1046.83294,424.701176 C1052.67765,424.701176 1056.87059,422.16 1056.87059,416.696471 C1056.87059,411.36 1052.67765,408.818824 1046.83294,408.818824 C1040.98824,408.818824 1036.79529,411.36 1036.79529,416.696471 Z M1076.56471,416.696471 C1076.56471,430.545882 1064.11294,440.202353 1046.83294,440.202353 C1029.55294,440.202353 1017.10118,430.545882 1017.10118,416.696471 C1017.10118,403.101176 1029.55294,393.317647 1046.83294,393.317647 C1064.11294,393.317647 1076.56471,403.101176 1076.56471,416.696471 Z M1048.73882,445.665882 L1048.73882,464.343529 L1110.10824,464.343529 L1110.10824,480.48 L1028.15529,480.48 L1028.15529,445.665882 L1048.73882,445.665882 Z M1106.55059,397.891765 L1121.41647,397.891765 L1121.41647,414.663529 L1106.55059,414.663529 L1106.55059,452.145882 L1085.96706,452.145882 L1085.96706,363.077647 L1106.55059,363.077647 L1106.55059,397.891765 Z"/>
    <rect width="12.706" height="12.706" x="1116.235" y="290.824" fill="#FFF"/>
    <rect width="12.706" height="12.706" x="1116.235" y="50.824" fill="#FFF"/>
    <rect width="12.706" height="12.706" x="879.059" y="50.824" fill="#FFF"/>
    <rect width="12.706" height="12.706" x="999.059" y="50.824" fill="#FFF"/>
    <rect width="12.706" height="12.706" x="999.059" y="289.412" fill="#FFF"/>
    <rect width="12.706" height="12.706" x="879.059" y="170.824" fill="#FFF"/>
    <rect width="12.706" height="12.706" x="1116.235" y="170.824" fill="#FFF"/>
    <rect width="12.706" height="12.706" x="879.059" y="289.412" fill="#FFF"/>
    <rect width="297.294" height="26.235" x="885.706" y="536.059" stroke="#FFF" stroke-width="2" rx="6"/>
    <rect width="299.294" height="28.235" x="884.706" y="595.765" fill="#FFF" rx="6"/>
    <rect width="199.059" height="28.235" x="886.118" y="715.765" fill="#FFF" rx="6"/>
    <rect width="236.588" height="26.235" x="885.706" y="657.471" stroke="#FFF" stroke-width="2" rx="6"/>
    <g stroke="#F0EFEF" transform="translate(165.412 563)">
      <path stroke-linecap="square" d="M3.97058824 3.97058824L186.617647 186.617647M3.97058824 186.617647L186.617647 3.97058824"/>
      <rect width="157.824" height="110.176" x="16.382" y="40.206" rx="6"/>
      <rect width="157.824" height="110.176" x="16.382" y="40.206" rx="6" transform="rotate(-90 95.294 95.294)"/>
      <circle cx="95.294" cy="95.294" r="78.912"/>
      <circle cx="95.294" cy="95.294" r="55.088"/>
      <rect width="189.588" height="189.588" x=".5" y=".5" rx="6"/>
    </g>
  </g>
</svg>
