<?xml version="1.0" encoding="utf-8"?>
<!-- Generator: Adobe Illustrator 21.1.0, SVG Export Plug-In . SVG Version: 6.00 Build 0)  -->
<svg version="1.1" id="레이어_1" xmlns="http://www.w3.org/2000/svg" xmlns:xlink="http://www.w3.org/1999/xlink" x="0px" y="0px" viewBox="0 0 100 100.1" style="enable-background:new 0 0 100 100.1;" xml:space="preserve">  

<path d="M50,2.3C23.8,2.3,2.5,23.6,2.5,49.8S23.8,97.3,50,97.3S97.5,76,97.5,49.8S76.2,2.3,50,2.3z M50,90C27.8,90,9.8,72,9.8,49.8
	S27.8,9.6,50,9.6s40.2,18,40.2,40.2C90.2,71.9,72.2,90,50,90z"/>
<path d="M46.8,44c-0.5,0.3-1,0.6-1.5,1.1c-0.4,0.4-0.8,0.9-1.1,1.5l0,0l-15,24.1l24-15.1l0,0c0.5-0.3,1-0.6,1.5-1.1
	c0.4-0.4,0.8-0.9,1.1-1.5l0,0l15.1-24.1L46.8,44L46.8,44z M50,47c1.5,0,2.8,1.2,2.8,2.8c0,1.5-1.2,2.8-2.8,2.8s-2.8-1.2-2.8-2.8
	S48.5,47,50,47z"/>
<path d="M50,13.3c-20.1,0-36.4,16.3-36.4,36.4S29.9,86.1,50,86.1s36.4-16.3,36.4-36.4C86.4,29.7,70.1,13.3,50,13.3z M50,84.4
	c-19.1,0-34.6-15.5-34.6-34.6S30.9,15.2,50,15.2s34.6,15.5,34.6,34.6C84.6,68.8,69.1,84.4,50,84.4z"/>
</svg>
