<?xml version="1.0" encoding="utf-8"?>
<!-- Generator: Adobe Illustrator 21.1.0, SVG Export Plug-In . SVG Version: 6.00 Build 0)  -->
<svg version="1.1"
	 id="레이어_1" xmlns:cc="http://creativecommons.org/ns#" xmlns:dc="http://purl.org/dc/elements/1.1/" xmlns:inkscape="http://www.inkscape.org/namespaces/inkscape" xmlns:rdf="http://www.w3.org/1999/02/22-rdf-syntax-ns#" xmlns:sodipodi="http://sodipodi.sourceforge.net/DTD/sodipodi-0.dtd" xmlns:svg="http://www.w3.org/2000/svg"
	 xmlns="http://www.w3.org/2000/svg" xmlns:xlink="http://www.w3.org/1999/xlink" x="0px" y="0px" viewBox="0 0 100 100"
	 style="enable-background:new 0 0 100 100;" xml:space="preserve">
<g transform="translate(0,-952.36218)">
	<path d="M17.9,977.4c-0.4,0-0.8,0.4-0.8,1v1l32.9,31.5l32.9-31.5v-1c0-0.6-0.3-1-0.8-1C82.1,977.4,17.9,977.4,17.9,977.4z
		 M17.1,984.4v42c0,0.6,0.3,1,0.8,1h64.3c0.4,0,0.8-0.4,0.8-1v-42l-32,30.6c-0.6,0.5-1.3,0.5-1.9,0C49.1,1015,17.1,984.4,17.1,984.4
		z"/>
</g>
</svg>
