<?xml version="1.0" encoding="utf-8"?>
<!-- Generator: Adobe Illustrator 21.1.0, SVG Export Plug-In . SVG Version: 6.00 Build 0)  -->
<svg version="1.1" id="레이어_1" xmlns="http://www.w3.org/2000/svg" xmlns:xlink="http://www.w3.org/1999/xlink" x="0px"
	 y="0px" viewBox="0 0 152 152" style="enable-background:new 0 0 152 152;" xml:space="preserve">
<path d="M82.1,94c-5.2-0.4-7.3-2.8-11.4-5.1c-2.2,11-4.9,21.5-13,27c-2.5-16.6,3.6-29,6.5-42.3c-4.9-7.7,0.6-23.2,10.8-19.4
	c12.6,4.7-10.9,28.6,4.9,31.6c16.5,3.1,23.2-26.9,13-36.7C78.2,35,50,48.8,53.5,69c0.8,4.9,6.3,6.4,2.2,13.2
	c-9.4-2-12.3-9-11.9-18.3c0.6-15.3,14.6-26,28.7-27.5c17.8-1.9,34.5,6.1,36.8,21.9C111.8,76.1,101.2,95.3,82.1,94z"/>
</svg>
