<?xml version="1.0" encoding="UTF-8"?>
<svg width="24px" height="24px" viewBox="0 0 24 24" version="1.1" xmlns="http://www.w3.org/2000/svg" xmlns:xlink="http://www.w3.org/1999/xlink">
    <!-- Generator: Sketch 47.1 (45422) - http://www.bohemiancoding.com/sketch -->
    <title>icon/icon-about</title>
    <desc>Created with Sketch.</desc>
    <defs></defs>
    <g id="page" stroke="none" stroke-width="1" fill="none" fill-rule="evenodd">
        <g id="main-copy" transform="translate(-52.000000, -464.000000)" stroke="#000000" stroke-width="1.4">
            <g id="icon-about" transform="translate(51.000000, 464.000000)">
                <path d="M19.4537428,7.30484388 C17.8884325,5.33828565 15.474049,4.07768454 12.7652364,4.07768454 C8.04657209,4.07768454 4.22133888,7.90291774 4.22133888,12.621582 C4.22133888,17.3402463 8.04657209,21.1654795 12.7652364,21.1654795 C14.7941263,21.1654795 16.6578428,20.4582886 18.1233341,19.2769586 C17.6381131,19.3944432 17.1313221,19.4567 16.6099902,19.4567 C13.070992,19.4567 10.2020671,16.5877751 10.2020671,13.0487769 C10.2020671,9.50977869 13.070992,6.64085378 16.6099902,6.64085378 C17.6313347,6.64085378 18.59687,6.87980156 19.4537428,7.30484388 Z" id="Combined-Shape" transform="translate(11.837541, 12.621582) rotate(-30.000000) translate(-11.837541, -12.621582) "></path>
            </g>
        </g>
    </g>
</svg>