<?xml version="1.0" encoding="UTF-8"?>
<svg width="24px" height="21px" viewBox="0 0 24 21" version="1.1" xmlns="http://www.w3.org/2000/svg" xmlns:xlink="http://www.w3.org/1999/xlink">
    <!-- Generator: Sketch 47.1 (45422) - http://www.bohemiancoding.com/sketch -->
    <title>twitter</title>
    <desc>Created with Sketch.</desc>
    <defs></defs>
    <g id="page" stroke="none" stroke-width="1" fill="none" fill-rule="evenodd">
        <g id="FullHD-1080p-Copy" transform="translate(-1602.000000, -98.000000)" fill-rule="nonzero" fill="#000000">
            <g id="twitter" transform="translate(1602.000000, 98.000000)">
                <path d="M23.9533099,2.47636143 C23.0719064,2.88837321 22.1249123,3.16687817 21.1308538,3.29209937 C22.1454035,2.65095105 22.9246316,1.63571734 23.2916023,0.425919764 C22.3419415,1.01967243 21.2903392,1.4507707 20.1709006,1.68306367 C19.2745263,0.676214207 17.9972865,0.0471490615 16.5838129,0.0471490615 C13.869848,0.0471490615 11.6695673,2.36657711 11.6695673,5.22757821 C11.6695673,5.63362238 11.7130292,6.02901362 11.7968187,6.40822819 C7.71260819,6.19211189 4.09150877,4.12968568 1.66774269,0.995308796 C1.24472515,1.76044534 1.00233918,2.65035922 1.00233918,3.59980125 C1.00233918,5.3971866 1.86989474,6.98289437 3.18853801,7.91191829 C2.38297076,7.88499006 1.62521637,7.65195731 0.96271345,7.26391461 C0.962245614,7.28551638 0.962245614,7.30721678 0.962245614,7.32906515 C0.962245614,9.83911152 2.65623392,11.9329047 4.9042807,12.4089326 C4.49197661,12.5272492 4.05777778,12.5907722 3.60959064,12.5907722 C3.29291228,12.5907722 2.98507602,12.5582216 2.68495906,12.4976577 C3.31036257,14.5557438 5.12519298,16.0537622 7.27564912,16.0954369 C5.59377778,17.4850519 3.47480702,18.3131689 1.17235088,18.3131689 C0.775672515,18.3131689 0.38451462,18.2887067 4.67836257e-05,18.2406205 C2.17483041,19.710675 4.7579883,20.5683342 7.53319298,20.5683342 C16.5723041,20.5683342 21.5153216,12.6742201 21.5153216,5.82823555 C21.5153216,5.60363636 21.5104561,5.38022083 21.5010526,5.15798896 C22.4613333,4.42762238 23.2945029,3.51521899 23.9533099,2.47636143 Z" id="Shape"></path>
            </g>
        </g>
    </g>
</svg>