<svg xmlns="http://www.w3.org/2000/svg" width="24" height="24" viewBox="0 0 24 24">
  <g fill="none" fill-rule="evenodd">
    <rect width="24" height="24"/>
    <path fill="#000" fill-rule="nonzero" d="M10.4997661,5.39548715 L11.4997661,5.39548715 L11.4997661,17.8945124 C11.4997661,18.4467325 11.9474289,18.8943954 12.4996491,18.8943954 C13.0518692,18.8943954 13.4995321,18.4467325 13.4995321,17.8945124 L13.4995321,4.99976606 C13.4995321,3.61918338 12.3803487,2.5 10.9997661,2.5 C9.61918338,2.5 8.5,3.61918338 8.5,4.99976606 L8.5,18.3203506 C8.5,20.5292958 10.2907039,22.3199997 12.4996491,22.3199997 C14.7085943,22.3199997 16.4992982,20.5292958 16.4992982,18.3203506 L16.4992982,6.99961009 L17.4992982,6.99961009 L17.4992982,18.3203506 C17.4992982,21.0815806 15.260879,23.3199997 12.4996491,23.3199997 C9.73841914,23.3199997 7.5,21.0815806 7.5,18.3203506 L7.5,4.99976606 C7.5,3.06689864 9.06689864,1.5 10.9997661,1.5 C12.9326335,1.5 14.4995321,3.06689864 14.4995321,4.99976606 L14.4995321,17.8945124 C14.4995321,18.9990173 13.604154,19.8943954 12.4996491,19.8943954 C11.3951442,19.8943954 10.4997661,18.9990173 10.4997661,17.8945124 L10.4997661,5.39548715 Z" transform="rotate(45 12.5 12.41)"/>
  </g>
</svg>
