<svg xmlns="http://www.w3.org/2000/svg" width="24" height="24" viewBox="0 0 24 24">
  <g fill="none" fill-rule="evenodd">
    <rect width="24" height="24"/>
    <path fill="#000" fill-rule="nonzero" d="M10,18 C10,19.1045695 10.8954305,20 12,20 C13.1045695,20 14,19.1045695 14,18 L15,18 C15,19.6568542 13.6568542,21 12,21 C10.3431458,21 9,19.6568542 9,18 L10,18 Z M18.522967,18 L17,14.1925824 L17,10 C17,7.23857625 14.7614237,5 12,5 C9.23857625,5 7,7.23857625 7,10 L7,14.1925824 L5.47703296,18 L18.522967,18 Z M11.5,4.02053689 L11.5,2 L12.5,2 L12.5,4.02053689 C15.5797653,4.27461234 18,6.85466811 18,10 L18,14 L20,19 L4,19 L6,14 L6,10 C6,6.85466811 8.42023474,4.27461234 11.5,4.02053689 Z"/>
  </g>
</svg>
