<svg xmlns="http://www.w3.org/2000/svg" width="24" height="24" viewBox="0 0 24 24">
  <g fill="none" fill-rule="evenodd">
    <rect width="24" height="24"/>
    <path fill="#000" d="M16,5 L20,5 L20,6 L18,6 L18,19.125 C18,20.1605339 17.1045695,21 16,21 L8,21 C6.8954305,21 6,20.1605339 6,19.125 L6,6 L4,6 L4,5 L8,5 L8,4 C8,2.8954305 8.8954305,2 10,2 L14,2 C15.1045695,2 16,2.8954305 16,4 L16,5 Z M8,6 L7,6 L7,19 C7,19.5522847 7.44771525,20 8,20 L16,20 C16.5522847,20 17,19.5522847 17,19 L17,6 L16,6 L8,6 Z M10,8 L11,8 L11,17 L10,17 L10,8 Z M13,8 L14,8 L14,17 L13,17 L13,8 Z M9,5 L15,5 L15,4 C15,3.44771525 14.5522847,3 14,3 L10,3 C9.44771525,3 9,3.44771525 9,4 L9,5 Z"/>
  </g>
</svg>
