<svg xmlns="http://www.w3.org/2000/svg" width="24" height="24" viewBox="0 0 24 24">
  <g fill="none" fill-rule="evenodd">
    <rect width="24" height="24"/>
    <path fill="#000" fill-rule="nonzero" d="M3,8 L3,19 L21,19 L21,8 L16.9559693,8 L16.0559693,5 L7.94403065,5 L7.04403065,8 L3,8 Z M6.3,7 L7.2,4 L16.8,4 L17.7,7 L22,7 L22,20 L2,20 L2,7 L6.3,7 Z M12,16 C13.6568542,16 15,14.6568542 15,13 C15,11.3431458 13.6568542,10 12,10 C10.3431458,10 9,11.3431458 9,13 C9,14.6568542 10.3431458,16 12,16 Z M12,17 C9.790861,17 8,15.209139 8,13 C8,10.790861 9.790861,9 12,9 C14.209139,9 16,10.790861 16,13 C16,15.209139 14.209139,17 12,17 Z"/>
  </g>
</svg>
