<svg xmlns="http://www.w3.org/2000/svg" width="24" height="24" viewBox="0 0 24 24">
  <g fill="none" fill-rule="evenodd">
    <rect width="24" height="24"/>
    <path fill="#000" fill-rule="nonzero" d="M3.5,15.5 L8.93425855,15.5 L12,20.0986122 L15.0657415,15.5 L20.5,15.5 L20.5,4.5 L3.5,4.5 L3.5,15.5 Z M2.5,16.5 L2.5,3.5 L21.5,3.5 L21.5,16.5 L15.6009252,16.5 L12,21.9013878 L8.39907479,16.5 L2.5,16.5 Z M7,11 C7.55228475,11 8,10.5522847 8,10 C8,9.44771525 7.55228475,9 7,9 C6.44771525,9 6,9.44771525 6,10 C6,10.5522847 6.44771525,11 7,11 Z M12,11 C12.5522847,11 13,10.5522847 13,10 C13,9.44771525 12.5522847,9 12,9 C11.4477153,9 11,9.44771525 11,10 C11,10.5522847 11.4477153,11 12,11 Z M17,11 C17.5522847,11 18,10.5522847 18,10 C18,9.44771525 17.5522847,9 17,9 C16.4477153,9 16,9.44771525 16,10 C16,10.5522847 16.4477153,11 17,11 Z"/>
  </g>
</svg>
