<svg xmlns="http://www.w3.org/2000/svg" width="24" height="24" viewBox="0 0 24 24">
  <g fill="none" fill-rule="evenodd">
    <rect width="24" height="24"/>
    <path fill="#000" fill-rule="nonzero" d="M12,6 C8.844964,6 5.91448459,7.9593214 3.19580634,12 C5.91448459,16.0406786 8.844964,18 12,18 C15.155036,18 18.0855154,16.0406786 20.8041937,12 C18.0855154,7.9593214 15.155036,6 12,6 Z M12,19 C8.31810167,19 4.98476833,16.6666667 2,12 C4.98476833,7.33333333 8.31810167,5 12,5 C15.6818983,5 19.0152317,7.33333333 22,12 C19.0152317,16.6666667 15.6818983,19 12,19 Z M12,15 C13.6568542,15 15,13.6568542 15,12 C15,10.3431458 13.6568542,9 12,9 C10.3431458,9 9,10.3431458 9,12 C9,13.6568542 10.3431458,15 12,15 Z M12,16 C9.790861,16 8,14.209139 8,12 C8,9.790861 9.790861,8 12,8 C14.209139,8 16,9.790861 16,12 C16,14.209139 14.209139,16 12,16 Z"/>
  </g>
</svg>
