<svg xmlns="http://www.w3.org/2000/svg" width="24" height="24" viewBox="0 0 24 24">
  <g fill="none" fill-rule="evenodd">
    <rect width="24" height="24"/>
    <path fill="#000" fill-rule="nonzero" d="M12.0002399,20.5501303 L19.7977076,12.3642873 C21.4013858,10.6805561 21.4008099,7.92909397 19.7956648,6.24402683 C18.2163846,4.58592437 15.6784514,4.58534313 14.1002305,6.24215104 L12.0002315,8.44684593 L11.2761411,7.68665578 L9.90021191,6.2421293 C8.32278942,4.58596449 5.78363012,4.58648779 4.20467171,6.24406431 C2.59904451,7.92965405 2.59846303,10.6799216 4.20278645,12.3642482 L9.1515887,17.5595247 L12.0002399,20.5501303 Z M13.37614,5.55244601 C15.3484119,3.48196553 18.546365,3.48243922 20.5197733,5.55434075 C22.4929542,7.6257686 22.4931815,10.9842007 20.5218187,13.0539706 L12.0002315,22 L8.42750584,18.2492377 L3.47871255,13.0539706 C1.50657704,10.9834902 1.50698613,7.62624229 3.48059892,5.55434075 C5.45377987,3.48291291 8.65296028,3.48267606 10.6243231,5.55244601 L11.3097101,6.27200316 L12.0002315,6.99695075 L12.657184,6.30724572 L12.724322,6.30724572 L13.37614,5.55244601 Z"/>
  </g>
</svg>
