<svg xmlns="http://www.w3.org/2000/svg" width="24" height="24" viewBox="0 0 24 24">
  <g fill="none" fill-rule="evenodd">
    <rect width="24" height="24"/>
    <path fill="#000" fill-rule="nonzero" d="M16,11 L16,6 C16,3.790861 14.209139,2 12,2 C9.790861,2 8,3.790861 8,6 L8,11 L7,11 L7,6 C7,3.23857625 9.23857625,1 12,1 C14.7614237,1 17,3.23857625 17,6 L17,11 L16,11 Z M8,13.1079102 L8,18 C8,20.209139 9.790861,22 12,22 C14.209139,22 16,20.209139 16,18 L16,13.1079102 L17,13.1079102 L17,18 C17,20.7614237 14.7614237,23 12,23 C9.23857625,23 7,20.7614237 7,18 L7,13.1079102 L8,13.1079102 Z M11.5,8 L12.5,8 L12.5,16 L11.5,16 L11.5,8 Z" transform="rotate(45 12 12)"/>
  </g>
</svg>
