<svg xmlns="http://www.w3.org/2000/svg" width="24" height="24" viewBox="0 0 24 24">
  <g fill="none" fill-rule="evenodd">
    <rect width="24" height="24"/>
    <path fill="#000" fill-rule="nonzero" d="M12.2785839,19.9947702 C13.0886426,18.8547471 13.898638,17.6551668 14.6532852,16.4541995 C15.1404723,15.6788759 15.5885572,14.9278609 15.9891394,14.2102942 C17.2762327,11.904712 18,10.063828 18,9 C18,5.6862915 15.3137085,3 12,3 C8.6862915,3 6,5.6862915 6,9 C6,10.063828 6.72376734,11.904712 8.01086063,14.2102942 C8.41144282,14.9278609 8.85952773,15.6788759 9.34671485,16.4541995 C10.101362,17.6551668 10.9113574,18.8547471 11.7214161,19.9947702 C11.8166697,20.1288237 11.9096178,20.2587916 12,20.384402 C12.0903822,20.2587916 12.1833303,20.1288237 12.2785839,19.9947702 Z M12,22.072998 C12,22.072998 5,12.8659932 5,9 C5,5.13400675 8.13400675,2 12,2 C15.8659932,2 19,5.13400675 19,9 C19,12.8659932 12,22.072998 12,22.072998 Z M12,11 C13.1045695,11 14,10.1045695 14,9 C14,7.8954305 13.1045695,7 12,7 C10.8954305,7 10,7.8954305 10,9 C10,10.1045695 10.8954305,11 12,11 Z M12,12 C10.3431458,12 9,10.6568542 9,9 C9,7.34314575 10.3431458,6 12,6 C13.6568542,6 15,7.34314575 15,9 C15,10.6568542 13.6568542,12 12,12 Z"/>
  </g>
</svg>
