<svg xmlns="http://www.w3.org/2000/svg" width="24" height="24" viewBox="0 0 24 24">
  <g fill="none" fill-rule="evenodd">
    <rect width="24" height="24"/>
    <path fill="#000" fill-rule="nonzero" d="M9,22 L9,21 L15,21 L15,22 L9,22 Z M12.5,22 L11.5,22 L11.5,19 L12.5,19 L12.5,22 Z M5.5,13 L6.5,13 C6.5,16.0375661 8.96243388,18.5 12,18.5 C15.0375661,18.5 17.5,16.0375661 17.5,13 L18.5,13 C18.5,16.5898509 15.5898509,19.5 12,19.5 C8.41014913,19.5 5.5,16.5898509 5.5,13 Z M12,3 C10.8954305,3 10,3.8954305 10,5 L10,14 C10,15.1045695 10.8954305,16 12,16 C13.1045695,16 14,15.1045695 14,14 L14,5 C14,3.8954305 13.1045695,3 12,3 Z M12,2 C13.6568542,2 15,3.34314575 15,5 L15,14 C15,15.6568542 13.6568542,17 12,17 C10.3431458,17 9,15.6568542 9,14 L9,5 C9,3.34314575 10.3431458,2 12,2 Z"/>
  </g>
</svg>
