<svg xmlns="http://www.w3.org/2000/svg" width="24" height="24" viewBox="0 0 24 24">
  <g fill="none" fill-rule="evenodd">
    <rect width="24" height="24"/>
    <path fill="#000" fill-rule="nonzero" d="M12,4.5 C7.85786438,4.5 4.5,7.85786438 4.5,12 C4.5,16.1421356 7.85786438,19.5 12,19.5 C16.1421356,19.5 19.5,16.1421356 19.5,12 C19.5,9.70254891 18.4611392,7.5766368 16.7072665,6.160843 L17.33539,5.3827293 C19.3219964,6.98639477 20.5,9.39704704 20.5,12 C20.5,16.6944204 16.6944204,20.5 12,20.5 C7.30557963,20.5 3.5,16.6944204 3.5,12 C3.5,7.30557963 7.30557963,3.5 12,3.5 L12,1 L15,4 L12,7 L12,4.5 Z"/>
  </g>
</svg>
