<svg xmlns="http://www.w3.org/2000/svg" width="24" height="24" viewBox="0 0 24 24">
  <g fill="none" fill-rule="evenodd">
    <rect width="24" height="24"/>
    <path fill="#000" fill-rule="nonzero" d="M7,17 C8.65685425,17 10,18.3431458 10,20 C10,20.2581356 9.96711503,20.5114252 9.90396786,20.7548876 C10.5838691,20.9169979 11.2858943,21 12,21 C12.7141057,21 13.4161309,20.9169979 14.0960321,20.7548876 C14.032885,20.5114252 14,20.2581356 14,20 C14,18.3431458 15.3431458,17 17,17 C17.7347293,17 18.4196239,17.2666218 18.9494523,17.7194278 C19.6258739,16.8987122 20.1525051,15.9647017 20.5024926,14.9589379 C19.0824097,14.7219266 18,13.4873685 18,12 C18,10.5126315 19.0824097,9.27807336 20.5024926,9.04106213 C20.1525051,8.03529831 19.6258739,7.10128781 18.9494523,6.28057223 C18.4196239,6.73337816 17.7347293,7 17,7 C15.3431458,7 14,5.65685425 14,4 C14,3.74186445 14.032885,3.48857482 14.0960321,3.24511238 C13.4161309,3.0830021 12.7141057,3 12,3 C11.2858943,3 10.5838691,3.0830021 9.90396786,3.24511238 C9.96711503,3.48857482 10,3.74186445 10,4 C10,5.65685425 8.65685425,7 7,7 C6.26527073,7 5.58037609,6.73337816 5.05054769,6.28057223 C4.37412606,7.10128781 3.84749488,8.03529831 3.49750743,9.04106213 C4.91759028,9.27807336 6,10.5126315 6,12 C6,13.4873685 4.91759028,14.7219266 3.49750743,14.9589379 C3.84749488,15.9647017 4.37412606,16.8987122 5.05054769,17.7194278 C5.58037609,17.2666218 6.26527073,17 7,17 Z M2.16481789,13.8178029 C2.41898069,13.9347697 2.70187267,14 3,14 C4.1045695,14 5,13.1045695 5,12 C5,10.8954305 4.1045695,10 3,10 C2.70187267,10 2.41898069,10.0652303 2.16481789,10.1821971 C2.55626279,8.05067156 3.62357841,6.15559876 5.1363781,4.72736532 C5.42733621,5.47229043 6.15204152,6 7,6 C8.1045695,6 9,5.1045695 9,4 C9,3.47559563 8.79817341,2.99833039 8.46795949,2.64164355 C9.56619745,2.22693399 10.7565971,2 12,2 C13.2434029,2 14.4338026,2.22693399 15.5320405,2.64164355 C15.2018266,2.99833039 15,3.47559563 15,4 C15,5.1045695 15.8954305,6 17,6 C17.8479585,6 18.5726638,5.47229043 18.8636219,4.72736532 C20.3764216,6.15559876 21.4437372,8.05067156 21.8351821,10.1821971 C21.5810193,10.0652303 21.2981273,10 21,10 C19.8954305,10 19,10.8954305 19,12 C19,13.1045695 19.8954305,14 21,14 C21.2981273,14 21.5810193,13.9347697 21.8351821,13.8178029 C21.4437372,15.9493284 20.3764216,17.8444012 18.8636219,19.2726347 C18.5726638,18.5277096 17.8479585,18 17,18 C15.8954305,18 15,18.8954305 15,20 C15,20.5244044 15.2018266,21.0016696 15.5320405,21.3583564 C14.4338026,21.773066 13.2434029,22 12,22 C10.7565971,22 9.56619745,21.773066 8.46795949,21.3583564 C8.79817341,21.0016696 9,20.5244044 9,20 C9,18.8954305 8.1045695,18 7,18 C6.15204152,18 5.42733621,18.5277096 5.1363781,19.2726347 C3.62357841,17.8444012 2.55626279,15.9493284 2.16481789,13.8178029 Z M12,14.5 C13.3807119,14.5 14.5,13.3807119 14.5,12 C14.5,10.6192881 13.3807119,9.5 12,9.5 C10.6192881,9.5 9.5,10.6192881 9.5,12 C9.5,13.3807119 10.6192881,14.5 12,14.5 Z M12,15.5 C10.0670034,15.5 8.5,13.9329966 8.5,12 C8.5,10.0670034 10.0670034,8.5 12,8.5 C13.9329966,8.5 15.5,10.0670034 15.5,12 C15.5,13.9329966 13.9329966,15.5 12,15.5 Z"/>
  </g>
</svg>
