<svg xmlns="http://www.w3.org/2000/svg" width="24" height="24" viewBox="0 0 24 24">
  <g fill="none" fill-rule="evenodd">
    <rect width="24" height="24"/>
    <path fill="#000" fill-rule="nonzero" d="M6.21221445,8 L3,8 L3,16 L6.21221445,16 L14,19.461238 L14,4.53876198 L6.21221445,8 Z M6,7 L15,3 L15,21 L6,17 L2,17 L2,7 L6,7 Z M17.2861102,21.0742082 L16.7819766,20.2105825 C19.6804204,18.5186426 21.5,15.4178468 21.5,12 C21.5,8.62405744 19.7250477,5.55585338 16.8832942,3.84940617 L17.3980993,2.99209898 C20.5378602,4.87749687 22.5,8.26927553 22.5,12 C22.5,15.7770652 20.4885672,19.2048034 17.2861102,21.0742082 Z M17.38733,16.7960207 L16.7121734,16.0583462 C17.8439487,15.0224888 18.5,13.5645381 18.5,12 C18.5,10.4188746 17.8298574,8.94689228 16.6770738,7.9098039 L17.34589,7.1663761 C18.7073203,8.39117114 19.5,10.1323086 19.5,12 C19.5,13.8480786 18.7239689,15.5726618 17.38733,16.7960207 Z"/>
  </g>
</svg>
