<svg xmlns="http://www.w3.org/2000/svg" width="24" height="24" viewBox="0 0 24 24">
  <g fill="none" fill-rule="evenodd">
    <rect width="24" height="24"/>
    <path fill="#000" fill-rule="nonzero" d="M12,20.4999436 L12,23 L9,20 L12,17 L12,19.4999303 C16.1451579,19.4822864 19.5,16.1165509 19.5,11.9672501 C19.5,9.24044203 18.0393281,6.76890124 15.7184087,5.43337243 L16.2171605,4.56662757 C18.8451123,6.07883235 20.5,8.87899737 20.5,11.9672501 C20.5,16.6688363 16.6974444,20.4822881 12,20.4999385 Z M12,4.50006969 C7.85484207,4.51771361 4.5,7.88344907 4.5,12.0327499 C4.5,14.759558 5.96067193,17.2310988 8.28159133,18.5666276 L7.78283952,19.4333724 C5.1548877,17.9211676 3.5,15.1210026 3.5,12.0327499 C3.5,7.33116368 7.30255563,3.51771193 12,3.50006152 L12,1 L15,4 L12,7 L12,4.50006969 Z"/>
  </g>
</svg>
