<?xml version="1.0" encoding="utf-8"?>
<!-- Generator: Adobe Illustrator 22.0.0, SVG Export Plug-In . SVG Version: 6.00 Build 0)  -->
<svg version="1.1" id="레이어_1" xmlns="http://www.w3.org/2000/svg" xmlns:xlink="http://www.w3.org/1999/xlink" x="0px"
	 y="0px" viewBox="0 0 88 55.9" style="enable-background:new 0 0 88 55.9;" xml:space="preserve">
<style type="text/css">
	.st0{fill:#FFFFFF;stroke:#FFFFFF;stroke-width:2;stroke-miterlimit:10;}
</style>
<g transform="translate(0,-952.36218)">
	<path class="st0" d="M44,954.4c0.7,0,1.3,0.4,1.6,0.9l19.5,29.1l18.5-6.9c1-0.4,2.1,0.1,2.5,1.1c0.2,0.5,0.2,1.1-0.1,1.6l-14,25.1
		c-0.3,0.6-1,1-1.7,1H17.7c-0.8,0.1-1.6-0.3-2-1L2,980.2c-0.5-0.9-0.2-2.1,0.8-2.6c0.5-0.3,1.1-0.3,1.6-0.1l16.7,6.2l21.2-28.5
		C42.7,954.7,43.3,954.3,44,954.4L44,954.4z M42,962.1l-17.2,23l17.2,6.4V962.1z M45.8,962.6v29l15.5-5.8L45.8,962.6z M7.8,982.8
		l10.4,19.1l20.3-7.6L7.8,982.8z M80.1,982.9L28,1002.4h41.2L80.1,982.9z"/>
</g>
</svg>
