<?xml version="1.0" encoding="utf-8"?>
<!-- Generator: Adobe Illustrator 21.1.0, SVG Export Plug-In . SVG Version: 6.00 Build 0)  -->
<svg version="1.1" id="레이어_1" xmlns="http://www.w3.org/2000/svg" xmlns:xlink="http://www.w3.org/1999/xlink" x="0px"
	 y="0px" viewBox="0 0 100 100.1" style="enable-background:new 0 0 100 100.1;" xml:space="preserve">
<style type="text/css">
	.st0{stroke:#000000;stroke-miterlimit:10;}
	.st1{fill:#FFFFFF;}
</style>
<path d="M50,2.3C23.8,2.3,2.5,23.6,2.5,49.8S23.8,97.3,50,97.3S97.5,76,97.5,49.8S76.2,2.3,50,2.3z M50,90C27.8,90,9.8,72,9.8,49.8
	S27.8,9.6,50,9.6s40.2,18,40.2,40.2C90.2,71.9,72.2,90,50,90z"/>
<path d="M74.2,51.4c0,0-10.9,13.4-24.2,13.4S25.8,51.4,25.8,51.4S36.6,38,50,38S74.2,51.4,74.2,51.4z"/>
<path class="st0" d="M50,13.3c-20.1,0-36.4,16.3-36.4,36.4S29.9,86.1,50,86.1s36.4-16.3,36.4-36.4C86.4,29.7,70.1,13.3,50,13.3z
	 M50,84.4c-19.1,0-34.6-15.5-34.6-34.6S30.9,15.2,50,15.2s34.6,15.5,34.6,34.6C84.6,68.8,69.1,84.4,50,84.4z"/>
<circle class="st1" cx="50" cy="51.4" r="7.7"/>
<circle cx="50" cy="51.4" r="5.4"/>
</svg>
