<?xml version="1.0" encoding="utf-8"?>
<!-- Generator: Adobe Illustrator 21.1.0, SVG Export Plug-In . SVG Version: 6.00 Build 0)  -->
<svg version="1.1" id="레이어_1" xmlns="http://www.w3.org/2000/svg" xmlns:xlink="http://www.w3.org/1999/xlink" x="0px"
	 y="0px" viewBox="0 0 150 150" style="enable-background:new 0 0 150 150;" xml:space="preserve">
<style type="text/css">
	.st0{stroke:#000000;stroke-width:2;stroke-miterlimit:10;}
</style>
<path class="st0" d="M100.4,53.6c0,0-5.4,7.8-18.7,13.2c0.8,1.6,1.6,3.1,2.3,4.7c0.4,0.8,0.4,1.2,0.8,1.6c11.7-1.6,23,1.2,23.3,1.2
	C108.2,66.8,105.5,59.4,100.4,53.6z M86.8,78.9c4.3,12.1,6.2,21.8,6.6,23.7c7.4-5.1,12.8-13.2,14.4-22.6
	C107,80.1,97.7,76.9,86.8,78.9z M87.9,105.7c-0.4-3.1-2.3-13.2-7-25.3c0,0,0,0-0.4,0c-19.8,7-26.1,20.6-26.5,21
	c5.8,4.3,12.8,7,20.6,7C79.4,108.5,83.7,107.3,87.9,105.7z M79.4,61.8c12.5-4.7,17.5-12.1,17.5-12.1c-5.8-5.1-13.6-8.2-22.2-8.2
	c-2.7,0-5.4,0.4-7.8,0.8C67.3,43.1,73.5,51.3,79.4,61.8z M78.1,74.3c-0.8-1.8-1.9-3.7-2.6-5.5c-17.1,5.1-33.9,4.7-34.2,4.7
	c0,0.4,0,0.8,0,1.2c0,8.6,3.1,16.3,8.6,22.2c0,0,9.3-16.3,27.2-22.2L78.1,74.3z M113.2,67.2c0.4,2.7,0.8,5.1,0.8,7.8
	s-0.4,5.4-0.8,7.8s-1.2,5.1-2.3,7.4c-1.2,2.3-2.3,4.7-3.5,6.6c-1.6,1.9-3.1,3.9-4.7,5.8c-1.9,1.9-3.9,3.5-5.8,4.7
	c-1.9,1.6-4.3,2.7-6.6,3.5c-2.3,1.2-4.7,1.9-7.4,2.3c-2.7,0.4-5.1,0.8-7.8,0.8s-5.4-0.4-7.8-0.8c-2.3-0.4-5.1-1.2-7.4-2.3
	c-2.3-1.2-4.7-2.3-6.6-3.5c-1.9-1.6-3.9-3.1-5.8-4.7c-1.9-1.9-3.5-3.9-4.7-5.8c-1.6-1.9-2.7-4.3-3.5-6.6c-1.2-2.3-1.9-4.7-2.3-7.4
	c-0.4-2.7-0.8-5.1-0.8-7.8s0.4-5.4,0.8-7.8c0.4-2.3,1.2-5.1,2.3-7.4c1.2-2.3,2.3-4.7,3.5-6.6c1.6-1.9,3.1-3.9,4.7-5.8
	c1.9-1.9,3.9-3.5,5.8-4.7c1.9-1.6,4.3-2.7,6.6-3.5c2.3-1.2,4.7-1.9,7.4-2.3c2.7-0.4,5.1-0.8,7.8-0.8s5.4,0.4,7.8,0.8
	s5.1,1.2,7.4,2.3c2.3,1.2,4.7,2.3,6.6,3.5c1.9,1.6,3.9,3.1,5.8,4.7c1.9,1.9,3.5,3.9,4.7,5.8c1.6,1.9,2.7,4.3,3.5,6.6
	C111.7,62.2,112.5,64.5,113.2,67.2z M72.8,64.1C66.9,54,60.7,45.4,60.3,44.6C51,48.9,44,57.5,42,68C42.8,68,56.8,68.4,72.8,64.1z"/>
</svg>
