<?xml version="1.0" encoding="utf-8"?>
<!-- Generator: Adobe Illustrator 21.1.0, SVG Export Plug-In . SVG Version: 6.00 Build 0)  -->
<svg version="1.1" id="레이어_1" xmlns="http://www.w3.org/2000/svg" xmlns:xlink="http://www.w3.org/1999/xlink" x="0px"
	 y="0px" viewBox="0 0 100 100.1" style="enable-background:new 0 0 100 100.1;" xml:space="preserve">
<style type="text/css">
	.st0{fill:#FFFFFF;}
</style>
<path d="M50,2.3C23.8,2.3,2.5,23.6,2.5,49.8S23.8,97.3,50,97.3S97.5,76,97.5,49.8S76.2,2.3,50,2.3z M50,90C27.8,90,9.8,72,9.8,49.8
	S27.8,9.6,50,9.6s40.2,18,40.2,40.2C90.2,71.9,72.2,90,50,90z"/>
<path d="M74.2,49.8c0,0-10.9,13.4-24.2,13.4S25.8,49.8,25.8,49.8S36.6,36.4,50,36.4S74.2,49.8,74.2,49.8z"/>
<path d="M50,12.9c-20.3,0-36.9,16.6-36.9,36.9S29.7,86.7,50,86.7s36.9-16.6,36.9-36.9S70.3,12.9,50,12.9z M50,84
	c-18.8,0-34.1-15.3-34.1-34.1S31.2,15.8,50,15.8s34.1,15.3,34.1,34.1S68.8,84,50,84z"/>
<circle class="st0" cx="50" cy="49.8" r="8.7"/>
<circle cx="50" cy="49.8" r="4.7"/>
</svg>
