<?xml version="1.0" encoding="utf-8"?>
<!-- Generator: Adobe Illustrator 22.0.0, SVG Export Plug-In . SVG Version: 6.00 Build 0)  -->
<svg version="1.1" id="레이어_1" xmlns="http://www.w3.org/2000/svg" xmlns:xlink="http://www.w3.org/1999/xlink" x="0px"
	 y="0px" viewBox="0 0 351.5 351.5" style="enable-background:new 0 0 351.5 351.5;" xml:space="preserve">
<style type="text/css">
	.st0{fill:none;stroke:#040000;stroke-width:8;stroke-miterlimit:10;}
	.st1{fill:#040000;}
	.st2{fill:#FFFFFF;stroke:#040000;stroke-width:6;stroke-miterlimit:10;}
	.st3{fill:none;stroke:#040000;stroke-width:20;stroke-miterlimit:10;}
	.st4{fill:none;stroke:#040000;stroke-width:6;stroke-miterlimit:10;}
</style>
<g>
	<path class="st0" d="M226.1,142.9l-7.4-7.4l41.2-41.2L236.7,71l-41.2,41.2l-8.2-8.2c-6.1-6.1-18-4.2-26.6,4.4L41.4,227.7
		c-8.6,8.6-10.5,20.5-4.4,26.6l38.9,38.9c6.1,6.1,18,4.2,26.6-4.4l119.3-119.3C230.3,160.9,232.3,149,226.1,142.9z"/>
	
		<rect x="226.2" y="63.3" transform="matrix(0.7071 0.7071 -0.7071 0.7071 131.5667 -150.3959)" class="st1" width="42.3" height="40.6"/>
	<polygon class="st0" points="151.7,198.1 132.9,179.3 181.4,124.1 206.9,149.5 	"/>
	<polygon class="st0" points="93.7,262.7 68.3,237.2 123.5,188.7 142.3,207.5 	"/>
	
		<rect x="119.6" y="186.7" transform="matrix(0.7071 0.7071 -0.7071 0.7071 177.0316 -40.6401)" class="st1" width="36" height="13.3"/>
</g>
<g>
	<path class="st2" d="M18.4,218.9c17.1-3.8,14.8,12.4,32.4,12.4c17.5,0,17.5-12,35.1-12c17.5,0,17.5,12,35.1,12
		c17.5,0,17.5-12,35.1-12c17.5,0,17.5,12,35.1,12c17.5,0,17.5-12,35.1-12c17.5,0,17.5,12,35.1,12c17.5,0,17.5-12,35.1-12
		c17.5,0,17.5,12,35.1,12c0,0-44.3,106.1-155,106.1S25.6,246.6,25.6,246.6L18.4,218.9z"/>
</g>
<circle class="st3" cx="175.4" cy="175.5" r="162.8"/>
<path class="st4" d="M47.8,268.9c17.5,0,17.5-12,35.1-12c17.5,0,17.5,12,35.1,12c17.5,0,17.5-12,35.1-12c17.5,0,17.5,12,35.1,12
	c17.5,0,17.5-12,35.1-12c17.5,0,17.5,12,35.1,12c17.5,0,17.5-12,35.1-12c9.7,0,14,3.7,18.9,6.9"/>
<path class="st4" d="M67.4,299.1c3.8-2.5,8.1-4.6,15.5-4.6c17.5,0,17.5,12,35.1,12c17.5,0,17.5-12,35.1-12c17.5,0,17.5,12,35.1,12
	c17.5,0,17.5-12,35.1-12c17.5,0,17.5,12,35.1,12c17.5,0,17.5-12,35.1-12"/>
</svg>
