<?xml version="1.0" encoding="utf-8"?>
<!-- Generator: Adobe Illustrator 21.1.0, SVG Export Plug-In . SVG Version: 6.00 Build 0)  -->
<svg version="1.1" id="레이어_1" xmlns="http://www.w3.org/2000/svg" xmlns:xlink="http://www.w3.org/1999/xlink" x="0px"
	 y="0px" viewBox="0 0 150 150" style="enable-background:new 0 0 150 150;" xml:space="preserve">
<g>
	<path d="M70.1,65.5c2.1-3.1,3.7-6.3,5.8-9.9c1.6-3.1,3.7-5.8,5.8-8.9c1.6-2.6,3.7-5.2,5.8-7.9s4.2-4.7,6.3-6.8
		c2.1-2.1,4.7-5.2,7.9-5.2c3.1,0,3.7,2.4,3.7,4.2c0,4-5.9,12.4-9.4,15.2c-3.5,2.8-7.3,4.7-7.3,4.7c-0.5,0.5-1,1-0.5,1.6
		c0.5,1,0.5,2.1,0,3.1c-1,2.1-2.1,3.7-3.7,5.2c-1,1-2.1,2.1-3.7,3.7c-3.7,3.7-6.3,7.3-9.4,11l-4.8,7.2c2.1-2.1,1.6-1.6,4.2-3.5
		s7.7-4.3,11-5.7c3.3-1.4,5.2-1.6,6.3-1.6s2.6,0,3.7,0.5c1.6,0.5,3.2,2,3.7,4.7c0.5,2.7,0,4.1-0.5,6.3s-4.1,7.5-5.8,9.4
		s-4,3.9-7.2,6c-3.1,2-3.3,2.1-6.4,3.5c-3.1,1.4-11.9,4.4-15,4.9l-10.8,2.5c-0.5,0,0,0,0,0l-2.5,4.5c0,0-1.2,1.4-1.9,1.9
		c-0.7,0.5-1.5,1.1-3.1,1.5s-2.3-0.2-2.8-0.2c2-2.5,3.3-4.2,5.4-7.8c0,0-4.2-0.9-4.1-1.9s0.9-3,0.9-3c0.7,1,3,1.9,5.2,2 M69.7,101.3
		c4.9-2,6.7-3.3,9.8-5.9c3.1-2.6,5.8-6.3,7.3-10.5c0.5-1.6,1.1-3.7,1-5.2c0-0.7-0.6-1.4-0.9-1.7s-1-0.9-2.8-0.9
		c-3.7,0-5.9,1.6-8.4,2.9s-8.4,5.7-10.7,7.9S51.6,106,51.6,106S64.8,103.3,69.7,101.3z M83.2,50.9c7.3-4.7,13.6-11,16.2-19.9
		 M82.7,51.9c-2.6,3.7-5.2,7.9-7.3,12c1.6-1.6,2.6-2.6,4.2-4.2c1-1,2.1-2.1,3.1-3.1c0.5-0.5,1-1,1-1.6"/>
	<path d="M47.6,120.5c0.5-0.5,1-2,1.6-2.6c18.8,0,37.2,0,56,0c0,1-0.5,2.6-1,2.6c-0.5,0-0.5,0-1,0c-17.8,0-36.1,0-53.9,0
		C48.6,120.5,48.1,120.5,47.6,120.5z"/>
</g>
</svg>
