<?xml version="1.0" encoding="utf-8"?>
<!-- Generator: Adobe Illustrator 21.1.0, SVG Export Plug-In . SVG Version: 6.00 Build 0)  -->
<svg version="1.1" id="레이어_1" xmlns="http://www.w3.org/2000/svg" xmlns:xlink="http://www.w3.org/1999/xlink" x="0px"
	 y="0px" viewBox="0 0 150 150" style="enable-background:new 0 0 150 150;" xml:space="preserve">
<title>Monogram</title>
<desc>Created with Sketch.</desc>
<path id="Shape" d="M45.4,54.6c0.1-0.9-0.3-1.9-1-2.5l-7.2-8.7v-1.3h22.3L76.8,80L92,42.2h21.3v1.3l-6.1,5.9
	c-0.5,0.4-0.8,1.1-0.7,1.7v43.3c-0.1,0.7,0.2,1.3,0.7,1.7l6,5.9v1.3H82.9V102l6.2-6c0.6-0.6,0.6-0.8,0.6-1.7v-35l-17.3,43.9h-2.3
	L50,59.3v29.4c-0.2,1.2,0.2,2.5,1.1,3.4l8.1,9.8v1.3H36.2v-1.3l8.1-9.8c0.9-0.9,1.3-2.2,1-3.4V54.6z"/>
</svg>
