<?xml version="1.0" encoding="utf-8"?>
<!-- Generator: Adobe Illustrator 22.0.0, SVG Export Plug-In . SVG Version: 6.00 Build 0)  -->
<svg version="1.1" id="레이어_1" xmlns="http://www.w3.org/2000/svg" xmlns:xlink="http://www.w3.org/1999/xlink" x="0px"
	 y="0px" viewBox="0 0 100 100.1" style="enable-background:new 0 0 100 100.1;" xml:space="preserve">
<style type="text/css">
	.st0{fill:#FFFFFF;}
</style>
<g>
	<path d="M50,4.4C25,4.4,4.6,24.8,4.6,49.8S25,95.2,50,95.2s45.4-20.3,45.4-45.4S75,4.4,50,4.4z M50,88.2
		c-21.2,0-38.4-17.2-38.4-38.4S28.8,11.4,50,11.4s38.4,17.2,38.4,38.4C88.4,70.9,71.2,88.2,50,88.2z"/>
	<path d="M82,50c0,0-14.4,18.5-32,18.5S18,50,18,50s14.3-18.5,32-18.5S82,50,82,50z"/>
	<circle class="st0" cx="50" cy="49.7" r="11.6"/>
	<circle cx="50" cy="49.7" r="6.2"/>
</g>
</svg>
