<?xml version="1.0" encoding="utf-8"?>
<!-- Generator: Adobe Illustrator 21.1.0, SVG Export Plug-In . SVG Version: 6.00 Build 0)  -->
<svg version="1.1" id="레이어_1" xmlns="http://www.w3.org/2000/svg" xmlns:xlink="http://www.w3.org/1999/xlink" x="0px"
	 y="0px" viewBox="0 0 152 152" style="enable-background:new 0 0 152 152;" xml:space="preserve">
<path d="M91,41.1L91,41.1l4,0l1.5,0.3c1,0.2,1.9,0.4,2.7,0.8c0.8,0.3,1.6,0.7,2.3,1.1c0.7,0.4,1.4,0.8,2,1.3
	c0.6,0.4,1.1,0.9,1.6,1.3c0.5,0.5,1.2,0.6,2.2,0.4c1-0.2,2.1-0.6,3.3-1c1.2-0.4,2.3-0.9,3.5-1.4c1.1-0.5,1.8-0.8,2.1-1
	c0.2-0.1,0.4-0.2,0.4-0.2l0,0l0.1,0l0.1,0l0.1,0l0.1,0l0,0l0,0l0,0l0,0l0.1,0l0.1,0l0,0.1l0,0.1l0,0.1l0,0.1l0,0.1l0,0.1l0,0.1
	c0,0.1-0.1,0.2-0.1,0.3c0,0.1-0.3,0.6-0.7,1.6c-0.5,0.9-1,1.8-1.7,2.8c-0.7,0.9-1.3,1.6-1.9,2.1c-0.6,0.5-0.9,0.8-1.1,1
	c-0.2,0.2-0.4,0.4-0.7,0.5l-0.4,0.3l-0.1,0l-0.1,0l0,0l0,0l0,0l0,0l-0.1,0l-0.1,0l0,0l0,0l0,0l0,0l0,0l0,0l0,0l0,0h0.4l2.2-0.5
	c1.4-0.3,2.8-0.7,4.1-1.1l2.1-0.7l0.2-0.1l0.1,0l0.1,0l0.1,0l0.1,0l0.1,0l0.2,0l0.2,0v0.2l0,0l0,0l0,0l0,0l0,0l0,0l0,0l0,0l0,0l0,0
	l0,0l0,0l0,0.1l0,0.1l0,0c0,0-0.3,0.5-1,1.3c-0.6,0.9-1,1.3-1,1.3c-0.1,0-0.1,0.1-0.2,0.2c-0.1,0.1-0.6,0.7-1.6,1.7
	c-1,1-2,1.9-3,2.7c-1,0.8-1.5,1.8-1.5,2.9c0,1.1-0.1,2.4-0.2,3.9c-0.1,1.4-0.3,3-0.6,4.7c-0.3,1.7-0.7,3.6-1.3,5.7
	c-0.6,2.1-1.3,4.2-2.2,6.2c-0.9,2-1.7,3.8-2.7,5.4c-0.9,1.6-1.8,3-2.6,4.1s-1.6,2.2-2.4,3.1c-0.8,1-1.8,2.1-3,3.3
	c-1.2,1.2-1.9,1.9-2,2c-0.1,0.1-0.6,0.5-1.5,1.3c-0.9,0.7-1.8,1.5-2.9,2.2c-1,0.7-2,1.3-2.8,1.8c-0.9,0.5-1.9,1.1-3.1,1.7
	c-1.2,0.6-2.5,1.2-3.9,1.8c-1.4,0.5-2.9,1-4.4,1.5c-1.6,0.5-3,0.8-4.5,1.1c-1.4,0.3-3.1,0.5-4.9,0.7l-2.8,0.3v0h-5v0l-0.7,0
	c-0.4,0-0.8-0.1-1.1-0.1c-0.3,0-1.4-0.2-3.2-0.4c-1.9-0.3-3.3-0.5-4.4-0.8c-1.1-0.3-2.6-0.7-4.7-1.5c-2.1-0.7-3.9-1.5-5.4-2.2
	c-1.5-0.7-2.4-1.2-2.8-1.4c-0.4-0.2-0.8-0.4-1.3-0.7l-0.7-0.4l0,0l0,0l0,0l0,0l-0.1,0l-0.1,0l0,0l0,0l0,0l0,0l0,0l0,0h0v-0.2l0.1,0
	l0.1,0l0.3,0c0.2,0,0.9,0.1,1.9,0.1c1,0.1,2.1,0.1,3.3,0c1.2-0.1,2.4-0.2,3.6-0.3c1.2-0.2,2.6-0.5,4.3-0.9c1.7-0.4,3.2-1,4.6-1.6
	c1.4-0.6,2.4-1.1,2.9-1.4c0.6-0.3,1.5-0.8,2.7-1.6l1.8-1.2l0,0l0,0l0,0l0,0l0,0l0,0l0,0l0,0l0.1,0l0.1,0l0-0.1l0-0.1l0,0l0,0l-0.6,0
	c-0.4,0-0.8-0.1-1.2-0.1s-1-0.1-1.8-0.3c-0.8-0.2-1.7-0.5-2.7-0.9c-1-0.4-1.9-0.9-2.8-1.5c-0.9-0.6-1.6-1-2-1.4
	c-0.4-0.4-0.9-0.9-1.6-1.6c-0.6-0.7-1.2-1.4-1.6-2.1c-0.5-0.7-0.9-1.6-1.3-2.5l-0.6-1.4l0-0.1l0-0.1l0-0.1l0-0.1l0.1,0l0.1,0
	l0.9,0.1c0.6,0.1,1.5,0.1,2.7,0.1c1.2,0,2.1-0.1,2.5-0.2c0.5-0.1,0.7-0.1,0.9-0.2l0.2,0l0.2,0l0.2,0l0,0l0,0l0,0l0,0l-0.2,0l-0.2,0
	l-0.2,0l-0.2,0l-0.2,0c-0.1,0-0.3-0.1-0.5-0.2c-0.3-0.1-1-0.4-2.1-0.9c-1.1-0.5-2-1-2.7-1.4c-0.7-0.5-1.3-1-1.9-1.5
	c-0.6-0.6-1.3-1.3-2-2.2c-0.7-0.9-1.4-1.9-1.9-3.1c-0.6-1.2-1-2.3-1.3-3.3c-0.3-1.1-0.5-2.1-0.6-3.2l-0.1-1.6l0.1,0l0.1,0l0.1,0
	l0.1,0l0.1,0l0.1,0l1.2,0.5c0.8,0.4,1.8,0.7,3,0.9c1.2,0.3,1.9,0.4,2.1,0.4l0.3,0h0.7l0,0l0,0l0,0l0,0l0,0l0,0l0,0l0,0l-0.1,0
	l-0.1,0l0,0l0,0l0,0l0,0l-0.1,0l-0.1,0l0,0c0,0-0.2-0.2-0.7-0.5c-0.4-0.3-0.9-0.7-1.3-1.3c-0.5-0.5-0.9-1.1-1.4-1.6
	c-0.5-0.6-0.9-1.2-1.2-1.8c-0.4-0.6-0.7-1.5-1.1-2.5c-0.4-1-0.7-2-0.9-3c-0.2-1-0.3-2-0.3-3c0-1,0-1.8,0.1-2.5
	c0.1-0.7,0.2-1.5,0.5-2.4c0.2-0.9,0.6-1.8,1-2.8l0.7-1.5l0-0.1l0-0.1l0,0l0,0l0,0l0,0l0,0l0,0l0,0l0,0l0,0l0,0l0,0l0,0l0,0.1l0,0.1
	l0,0l0,0l1,1.2c0.7,0.8,1.5,1.6,2.5,2.6c1,1,1.5,1.5,1.6,1.5c0.1,0,0.2,0.2,0.4,0.4c0.2,0.2,0.7,0.6,1.6,1.4c0.9,0.7,2,1.6,3.5,2.5
	c1.4,1,3,1.9,4.7,2.8c1.7,0.9,3.6,1.8,5.6,2.5c2,0.7,3.4,1.2,4.2,1.5c0.8,0.2,2.2,0.5,4.1,0.9s3.4,0.6,4.4,0.7c1,0.1,1.7,0.2,2,0.2
	l0.5,0l0-0.1l0-0.1l-0.2-1c-0.1-0.6-0.2-1.6-0.2-2.7c0-1.2,0.1-2.2,0.3-3.2c0.2-1,0.5-2,0.8-3c0.4-1,0.7-1.8,1.1-2.4
	c0.4-0.6,0.8-1.3,1.4-2.1c0.6-0.8,1.3-1.6,2.2-2.4c0.9-0.8,1.9-1.6,3.1-2.2c1.2-0.6,2.2-1.1,3.2-1.5c1-0.3,1.8-0.6,2.5-0.7
	C90.6,41.2,91,41.1,91,41.1z"/>
</svg>
