<?xml version="1.0" encoding="utf-8"?>
<!-- Generator: Adobe Illustrator 21.1.0, SVG Export Plug-In . SVG Version: 6.00 Build 0)  -->
<svg version="1.1" id="레이어_1" xmlns="http://www.w3.org/2000/svg" xmlns:xlink="http://www.w3.org/1999/xlink" x="0px"
	 y="0px" viewBox="0 0 150 150" style="enable-background:new 0 0 150 150;" xml:space="preserve">
<g>
	<path d="M69.4,63.2c2.7-4,4.7-8.1,7.4-12.7c2-4,4.7-7.4,7.4-11.4c2-3.3,4.7-6.7,7.4-10.1c2.7-3.5,5.4-6,8.1-8.7
		c2.7-2.7,6-6.7,10.1-6.7c4,0,4.7,3.1,4.7,5.4c0,5.1-7.6,15.9-12,19.5c-4.5,3.6-9.3,6-9.3,6c-0.6,0.6-1.3,1.3-0.6,2
		c0.6,1.3,0.6,2.7,0,4c-1.3,2.7-2.7,4.7-4.7,6.7c-1.3,1.3-2.7,2.7-4.7,4.7c-4.7,4.7-8.1,9.3-12,14.1L65,85.2c2.7-2.7,2-2,5.4-4.5
		c3.3-2.4,9.9-5.5,14.1-7.3s6.7-2,8.1-2c1.4,0,3.3,0,4.7,0.6c2,0.6,4.1,2.6,4.7,6s0,5.3-0.6,8.1c-0.6,2.8-5.3,9.6-7.4,12
		c-2.2,2.4-5.1,5-9.2,7.7c-4,2.6-4.2,2.7-8.2,4.5c-4,1.8-15.2,5.6-19.2,6.3l-13.8,3.2c-0.6,0,0,0,0,0l-3.2,5.8c0,0-1.5,1.8-2.4,2.4
		c-0.9,0.6-1.9,1.4-4,1.9c-2,0.5-2.9-0.3-3.6-0.3c2.6-3.2,4.2-5.4,6.9-10c0,0-5.4-1.2-5.3-2.4c0.1-1.3,1.2-3.8,1.2-3.8
		c0.9,1.3,3.8,2.4,6.7,2.6 M68.9,109.1c6.3-2.6,8.6-4.2,12.6-7.6c4-3.3,7.4-8.1,9.3-13.4c0.6-2,1.4-4.7,1.3-6.7
		c0-0.9-0.8-1.8-1.2-2.2c-0.4-0.4-1.3-1.2-3.6-1.2c-4.7,0-7.6,2-10.8,3.7s-10.8,7.3-13.7,10.1c-2.9,2.8-17.2,23.2-17.2,23.2
		S62.7,111.6,68.9,109.1z M86.2,44.5c9.3-6,17.4-14.1,20.7-25.5 M85.6,45.8c-3.3,4.7-6.7,10.1-9.3,15.4c2-2,3.3-3.3,5.4-5.4
		c1.3-1.3,2.7-2.7,4-4c0.6-0.6,1.3-1.3,1.3-2"/>
	<path d="M40.6,133.6c0.6-0.6,1.3-2.6,2-3.3c24.1,0,47.6,0,71.7,0c0,1.3-0.6,3.3-1.3,3.3s-0.6,0-1.3,0c-22.8,0-46.2,0-69,0
		C41.9,133.6,41.3,133.6,40.6,133.6z"/>
</g>
</svg>
