<?xml version="1.0" encoding="utf-8"?>
<!-- Generator: Adobe Illustrator 21.1.0, SVG Export Plug-In . SVG Version: 6.00 Build 0)  -->
<svg version="1.1" id="레이어_1" xmlns="http://www.w3.org/2000/svg" xmlns:xlink="http://www.w3.org/1999/xlink" x="0px"
	 y="0px" viewBox="0 0 80 80" style="enable-background:new 0 0 80 80;" xml:space="preserve">
<style type="text/css">
	.st0{fill:#FFFFFF;}
</style>
<path d="M28,1h24c14.8,0,26.8,12,26.8,26.8v24.4C78.8,67,66.8,79,52,79H28C13.2,79,1.2,67,1.2,52.2V27.8C1.2,13,13.2,1,28,1z"/>
<g>
	<path class="st0" d="M61.3,61.1c-2.6,0-4.7,0-7.4,0c0-11.4,0-22.6,0-34.4c-11.7,0-22.9,0-34.4,0c0-2.6,0-4.7,0-7.2
		c13.9,0,27.7,0,41.8,0C61.3,33.3,61.3,47,61.3,61.1z"/>
	<path class="st0" d="M18.6,46.5c0-8.4,6.7-15.1,15.1-15.2c8.6,0,15.4,6.9,15.2,15.5c-0.1,8.5-6.8,15-15.3,14.9
		C25.2,61.6,18.6,55,18.6,46.5z M33.9,54.2c4.1-0.1,7.6-3.8,7.5-7.8c-0.1-4.2-3.7-7.4-7.9-7.3c-4.1,0.2-7.2,3.3-7.2,7.4
		C26.3,50.7,29.8,54.2,33.9,54.2z"/>
</g>
</svg>
