<?xml version="1.0" encoding="utf-8"?>
<!-- Generator: Adobe Illustrator 21.1.0, SVG Export Plug-In . SVG Version: 6.00 Build 0)  -->
<svg version="1.1" id="레이어_1" xmlns="http://www.w3.org/2000/svg" xmlns:xlink="http://www.w3.org/1999/xlink" x="0px"
	 y="0px" viewBox="0 0 612 487.2" style="enable-background:new 0 0 612 487.2;" xml:space="preserve">
<style type="text/css">
	.st0{fill:#FE5C01;}
	.st1{fill:#FE9000;}
	.st2{fill:#FEB900;}
	.st3{fill:#FECC01;}
	.st4{fill:#FECC00;}
	.st5{fill:#FEB901;}
	.st6{fill:#FEFDFC;}
	.st7{fill:#FEB800;}
</style>
<path class="st0" d="M218.5,137.6c-2.9-7.3-5.9-14.6-8.6-21.9c-5.5-14.9-10.6-30-11.3-46.1c-0.2-4.5,0.3-9.2,1.4-13.6
	c2.7-10.6,12-15.8,23.3-13.6c9.8,1.9,18.6,6.2,26.4,12.1c12.6,9.5,24.5,19.7,36.8,29.7c0.8,0.7,1.6,1.4,2.8,2.5
	c0.8-5.9,1.5-11.4,2.3-16.9c2.7-17.3,5.8-34.6,13.8-50.5c2.1-4.1,4.9-8.1,8.1-11.4c7-7.4,16.5-8.4,24.5-2.2
	c4.9,3.8,9.3,8.7,12.9,13.8c9.6,13.7,15.2,29.4,20.5,45.1c1.6,4.7,2.9,9.4,4.3,14.2c-4.1,0.7-8.2,1.5-12.3,2.2
	c-1.3-4.3-2.5-8.6-3.9-12.8c-4.9-14.6-10.1-29.1-18.7-42.1c-2.5-3.9-5.9-7.3-9.4-10.4c-3.3-2.8-6.4-2.4-9.4,0.8
	c-2.2,2.4-4.3,5.1-5.6,8c-10.9,23.5-13.6,48.7-15.6,74.1c-0.5,4.4-1.2,8.9-1.3,13.3c-0.4,13.7-0.6,27.5-0.9,41.2
	c-0.2,1.3-0.5,2.5-0.5,3.8c0.1,5.4,0.4,10.8,0.6,16.2c0.5,13.9,0.8,27.7,1.5,41.6c0.5,11.5,1.4,23,2.2,34.4
	c0.2,3.4,0.9,6.7,1.3,10.1c0.9,1.7,1.7,3.6,2.9,5.2c14.2,19.3,28.4,38.5,42.8,57.6c4.9,6.6,10.4,12.7,15.5,19.1
	c1.9,2.4,3.9,3.1,6.9,1.8c4.1-1.8,8.4-3,12.6-4.5c29.7-10.7,58.5-23.2,86.5-38c21.8-11.5,42.9-24,62.7-38.5
	c19.4-14.2,37.8-29.5,52.6-48.6c12.7-16.4,22.4-33.8,20.3-55.5c3.7,11.9,4.1,24.1,2.4,36.3c-4.2,31.1-19.3,57-38.8,80.7
	c-25.2,30.6-56.2,54.4-90.1,74.7c-1.3,0.8-2.6,1.5-3.9,2.3c-0.1,0.1-0.1,0.2-0.4,0.4c2.6,6.6,5.4,13.3,7.9,20.1
	c4.9,12.9,9.3,26,10.6,39.8c0.6,6.8,0.3,14-1.1,20.6c-2.1,9.7-10.8,14.7-20.7,13.5c-9.4-1.1-17.5-5.2-25.4-10.1
	c-14.5-8.9-27.3-20.1-39.7-31.7c-0.9-0.9-1.9-1.7-3.2-2.9c-1,6.8-1.7,13.2-2.8,19.5c-2.6,15.7-5.5,31.3-12.7,45.7
	c-2.4,4.9-5.7,9.5-9.4,13.5c-5.9,6.4-15.1,7.6-22.2,2.7c-5.1-3.6-9.8-8.2-13.4-13.2c-9.4-12.9-14.8-27.7-20-42.6
	c-2.1-6.1-4-12.3-6-18.6c-7.8,1-15.5,2.1-23.3,2.9c-41,4.2-81.6,2.9-121.2-9.7c-0.4-0.1-0.9-0.2-1.4-0.3c-0.6-0.3-1.3-0.6-1.9-0.8
	c-22.5-8.1-42.9-19.3-58.3-38c-4.1-5-7.1-10.9-10.6-16.4c0.5,0.3,1.1,0.6,1.4,1c6.6,8.6,15.5,13.9,25.2,18
	c20,8.5,41.3,10.8,62.6,11.1c15.2,0.3,30.5-1.1,45.7-2c7-0.4,13.9-1.6,20.9-2.7c8.7-1.3,17.3-2.7,26-4.4c7.8-1.5,15.5-3.4,23.3-5.1
	c0-1.4,0.1-2.3,0-3.2c-2.6-15.1-5.3-30.2-7.7-45.3c-1.9-11.8-3.3-23.6-4.9-35.4c-0.6-4.7-1.4-9.4-2-14.1c-0.5-0.9-0.9-1.9-1.5-2.8
	c-14-22.5-28-45-41.9-67.5c-2.8-4.6-5.4-9.3-8.2-13.9c-4.7-9.4-9.3-18.8-14-28.3C223.1,147,220.8,142.3,218.5,137.6z M285.9,159.5
	c0.7-18.6,1.4-37.3,2-55.9c-0.7-1-1.3-2.2-2.1-3.1c-6.7-6.3-13.2-12.7-20.1-18.7c-10.8-9.4-22-18.4-35.3-24.4
	c-3.3-1.5-6.8-2.6-10.4-3.1c-4.7-0.7-7.2,0.9-8.3,5.6c-0.7,3-1.1,6.3-0.9,9.4c0.7,13.3,4.6,25.9,9.2,38.2c3,8,6.5,15.8,9.8,23.7
	c0.2,0.7,0.3,1.4,0.6,2c4.9,10.2,9.7,20.5,14.7,30.7c1.8,3.6,4,7.1,6.1,10.6c0.5,1.1,0.9,2.2,1.4,3.2c9.3,15.9,18.6,31.8,28,47.7
	c2.3,4,4.9,7.8,7.8,12.2C287.6,211,286.7,185.2,285.9,159.5z M329.9,407c4.9,16.4,10.2,32.8,18.7,48c3.2,5.8,7.4,11.1,11.9,16
	c3.9,4.2,8.1,4,11.4-0.6c3.5-4.8,6.5-10.1,8.6-15.6c6.2-16.3,8.6-33.4,10.7-50.6c0.6-4.6,1-9.3,1.4-13.9
	C371.6,395.9,350.9,401.4,329.9,407z M405.7,385.6c2.9,3,5.9,6.2,9,9.2c12.9,12.2,26.2,24.1,41.8,32.8c5.1,2.8,10.7,4.8,16.3,6.4
	c4.9,1.4,8.2-0.8,9-5.9c0.7-4.7,1-9.7,0.3-14.3c-2.6-19.2-9.8-36.9-17.4-54.6c-0.1-0.3-0.5-0.4-0.2-0.2
	C444.7,368,425.3,376.8,405.7,385.6z M317.7,359.5c12.8-3.7,24.8-7.1,36.8-10.6c-16.2-21-32.1-41.5-47.9-62c-0.2,0-0.5,0-0.7,0
	C309.8,310.9,313.7,334.8,317.7,359.5z"/>
<path class="st1" d="M606.4,158c2,21.7-7.7,39.1-20.3,55.5c-14.8,19.1-33.2,34.4-52.6,48.6c-19.9,14.5-41,27.1-62.7,38.5
	c-27.9,14.7-56.8,27.2-86.5,38c-4.2,1.5-8.5,2.8-12.6,4.5c-3,1.3-5,0.6-6.9-1.8c-5.1-6.4-10.6-12.6-15.5-19.1
	c-14.4-19.1-28.6-38.4-42.8-57.6c-1.2-1.6-1.9-3.5-2.9-5.2c1.5-0.4,3-0.7,4.4-1.2c7.4-2.7,14.8-5.4,22.2-8.1
	c16.6-6,33.1-11.9,49.7-18c24-8.8,48-17.6,72.1-26.4c19.3-7,38.7-13.9,58-20.9c31.4-11.4,62.8-22.9,94.3-34.4
	C604.9,152.9,605.7,155.4,606.4,158z"/>
<path class="st2" d="M604.2,150.3c-31.4,11.5-62.8,23-94.3,34.4c-19.3,7-38.7,13.9-58,20.9c-24,8.8-48,17.6-72.1,26.4
	c-16.5,6-33.1,12-49.7,18c-7.4,2.7-14.8,5.4-22.2,8.1c-1.4,0.5-2.9,0.8-4.4,1.2c-0.4-3.4-1.1-6.7-1.3-10.1
	c-0.8-11.5-1.7-22.9-2.2-34.4c-0.7-13.9-1-27.7-1.5-41.6c-0.2-5.4-0.4-10.8-0.6-16.2c0-1.3,0.3-2.5,0.5-3.8c2.1-0.6,4.3-1,6.4-1.8
	c25.8-9.9,52-18.3,78.8-25.1c23.6-6,47.4-11.1,71.7-13.5c13.7-1.3,27.5-2.6,41.3-3.4c6.4-0.4,12.9,0.5,19.3,0.6
	c13.4,0.1,26.6,1.9,39.6,5.2c14.9,3.9,29.1,9.4,39.9,21.1c0.6,0.6,1.6,0.7,2.4,1.1c0,0-0.1,0-0.1,0c0.2,0.3,0.4,0.6,0.6,0.9
	c0,0,0,0,0,0c0.2,0.5,0.5,0.9,0.7,1.4c0,0,0,0,0,0c0.3,0.5,0.5,0.9,0.8,1.4C601.4,144.2,602.8,147.3,604.2,150.3z"/>
<path class="st1" d="M291,264.2c0.7,4.7,1.4,9.4,2,14.1c1.6,11.8,3,23.7,4.9,35.4c2.4,15.1,5.2,30.2,7.7,45.3c0.2,0.9,0,1.9,0,3.2
	c-7.8,1.7-15.5,3.6-23.3,5.1c-8.6,1.7-17.3,3-26,4.4c-6.9,1.1-13.9,2.2-20.9,2.7c-15.2,1-30.5,2.3-45.7,2
	c-21.4-0.4-42.6-2.6-62.6-11.1c-9.7-4.1-18.7-9.4-25.2-18c-0.3-0.4-0.9-0.7-1.4-1c0,0,0,0,0,0c-0.2-0.2-0.5-0.5-0.7-0.7c0,0,0,0,0,0
	c-0.3-0.5-0.5-1-0.8-1.5c-1.4-2.5-2.7-5.1-4.3-8c-10.4,3.9-20.8,7.8-31.2,11.7c-7.1-8.3-14.2-16.6-21.4-24.8c-13-15-26.1-30-39.2-45
	c-0.4-0.4-0.7-0.9-1.2-1.6c0.4-0.3,0.7-0.7,1.1-0.8C39.4,262.3,75.7,249.1,112,236c-3.9,7.6-8.2,15.1-11.7,22.9
	c-6.4,14.5-10.2,29.7-10.1,45.6c0.1,6.9,1.3,13.7,2,20.6c1,3.4,2,6.9,3,10.5c3.2-1.2,6-2.2,8.7-3.2c19.3-7,38.7-13.9,58-20.9
	c25.3-9.2,50.5-18.4,75.8-27.6C255.5,277.2,273.3,270.7,291,264.2z"/>
<path class="st3" d="M598.1,137.5c-0.8-0.4-1.9-0.5-2.4-1.1c-10.8-11.8-25-17.3-39.9-21.1c-13-3.4-26.2-5.1-39.6-5.2
	c-6.5,0-12.9-0.9-19.3-0.6c-13.8,0.8-27.5,2-41.3,3.4c-24.3,2.4-48.1,7.5-71.7,13.5c-26.8,6.8-53,15.2-78.8,25.1
	c-2.1,0.8-4.3,1.2-6.4,1.8c0.3-13.7,0.5-27.5,0.9-41.2c0.1-4.4,0.9-8.9,1.3-13.3c5.9-1.9,11.7-4.1,17.7-5.8
	c14.9-4.1,29.9-8,44.9-11.9c4.1-0.7,8.2-1.5,12.3-2.2c26.2-4.6,52.5-7,79.1-6.1c32.3,1.2,63.9,6.3,93.4,20.5
	c19.7,9.4,36.5,22.3,48.2,41.2C597.1,135.3,597.6,136.4,598.1,137.5z"/>
<path class="st4" d="M92.2,325c-0.7-6.9-2-13.7-2-20.6c-0.1-15.9,3.7-31.1,10.1-45.6c3.5-7.8,7.8-15.3,11.7-22.9
	c26.6-41.9,63.7-72.5,105.5-98c0.3-0.2,0.7-0.2,1-0.4c2.3,4.7,4.6,9.4,7,14.1c4.7,9.4,9.3,18.8,14,28.3c-3.7,2-7.5,4-11.2,5.9
	c-20.3,10.4-40,22-58.3,35.6c-12,8.9-24,18.1-35,28.2c-8.9,8.2-16.8,17.7-24.5,27.2c-8.8,11-15,23.6-17.1,37.8
	C92.9,318.1,92.6,321.6,92.2,325z"/>
<path class="st5" d="M63.7,347.7c10.4-3.9,20.8-7.8,31.2-11.7c1.6,2.9,2.9,5.5,4.3,8c0.3,0.5,0.5,1,0.8,1.5c0,0,0,0,0,0
	c0.2,0.2,0.5,0.5,0.7,0.7c0,0,0,0,0,0c3.5,5.5,6.5,11.4,10.6,16.4c15.4,18.7,35.9,30,58.3,38c0.7,0.2,1.3,0.5,1.9,0.8
	c-13.6,5-27.3,10.1-40.9,15.1c-21.6,7.9-43.2,15.8-64.8,23.6c-1.1,0.4-2.2,0.7-3.7,1.1c0-4-0.1-7.7,0-11.4c0.5-26,0.9-52,1.4-78
	C63.5,350.6,63.6,349.2,63.7,347.7z"/>
<path class="st3" d="M726.1,246c-0.4-0.7-0.7-1.3-1.1-2C725.4,244.7,725.7,245.3,726.1,246z"/>
<path class="st3" d="M725,244c-0.3-0.7-0.7-1.3-1-2C724.3,242.7,724.7,243.3,725,244z"/>
<path class="st3" d="M724,242c-0.3-0.4-0.6-0.8-0.8-1.3C723.4,241.2,723.7,241.6,724,242z"/>
<path class="st2" d="M92.2,325c0.4-3.4,0.7-6.9,1.2-10.3c2.1-14.2,8.2-26.7,17.1-37.8c7.6-9.5,15.5-19,24.5-27.2
	c11-10.1,23-19.3,35-28.2c18.3-13.6,38-25.2,58.3-35.6c3.8-1.9,7.5-3.9,11.2-5.9c2.7,4.6,5.3,9.3,8.2,13.9
	c13.9,22.5,27.9,45,41.9,67.5c0.5,0.9,1,1.8,1.5,2.8c-17.8,6.5-35.5,13-53.3,19.5c-25.3,9.2-50.5,18.4-75.8,27.6
	c-19.3,7-38.7,14-58,20.9c-2.8,1-5.5,2-8.7,3.2C94.2,331.9,93.2,328.4,92.2,325z"/>
<path class="st6" d="M229.8,131.2c-3.3-7.9-6.8-15.7-9.8-23.7c-4.6-12.3-8.5-24.9-9.2-38.2c-0.2-3.1,0.1-6.4,0.9-9.4
	c1.1-4.6,3.6-6.3,8.3-5.6c3.5,0.6,7.1,1.6,10.4,3.1c13.2,5.9,24.4,14.9,35.3,24.4c6.9,6,13.5,12.4,20.1,18.7c0.9,0.8,1.4,2,2.1,3.1
	c-8.7,3.7-17.6,7.1-26.2,11.2C251,120,240.5,125.7,229.8,131.2z"/>
<path class="st6" d="M363.5,81c-15,4-30,7.8-44.9,11.9c-6,1.6-11.8,3.8-17.7,5.8c2.1-25.4,4.8-50.6,15.6-74.1c1.4-2.9,3.4-5.6,5.6-8
	c3-3.2,6-3.7,9.4-0.8c3.5,3,6.9,6.5,9.4,10.4c8.6,12.9,13.8,27.5,18.7,42.1C361,72.4,362.2,76.8,363.5,81z"/>
<path class="st6" d="M329.9,407c21-5.6,41.7-11.1,62.9-16.7c-0.5,4.6-0.9,9.2-1.4,13.9c-2.1,17.2-4.5,34.3-10.7,50.6
	c-2.1,5.5-5.1,10.8-8.6,15.6c-3.4,4.6-7.5,4.9-11.4,0.6c-4.5-4.9-8.7-10.2-11.9-16C340.1,439.9,334.8,423.4,329.9,407z"/>
<path class="st6" d="M405.7,385.6c19.5-8.8,39-17.5,58.9-26.5c-0.3-0.2,0.1-0.1,0.2,0.2c7.6,17.6,14.7,35.4,17.4,54.6
	c0.6,4.7,0.4,9.7-0.3,14.3c-0.8,5-4.1,7.2-9,5.9c-5.6-1.6-11.2-3.6-16.3-6.4c-15.6-8.7-28.9-20.6-41.8-32.8
	C411.6,391.8,408.7,388.6,405.7,385.6z"/>
<path class="st3" d="M229.8,131.2c10.6-5.5,21.1-11.2,31.9-16.4c8.6-4.1,17.4-7.5,26.2-11.2c-0.7,18.6-1.4,37.3-2,55.9
	c-0.9,0.1-1.9,0.1-2.7,0.4c-10.7,4.8-21.3,9.7-31.9,14.5c-2-3.5-4.3-7-6.1-10.6c-5-10.2-9.8-20.4-14.7-30.7
	C230.1,132.6,230,131.9,229.8,131.2z"/>
<path class="st7" d="M251.2,174.5c10.6-4.9,21.3-9.7,31.9-14.5c0.8-0.4,1.8-0.3,2.7-0.4c0.8,25.7,1.7,51.5,2.6,78.1
	c-2.8-4.4-5.4-8.3-7.8-12.2c-9.4-15.9-18.7-31.8-28-47.7C252.1,176.7,251.7,175.6,251.2,174.5z"/>
<path class="st1" d="M317.7,359.5c-4-24.7-7.9-48.6-11.8-72.5c0.2,0,0.5,0,0.7,0c15.8,20.5,31.6,40.9,47.9,62
	C342.5,352.4,330.5,355.8,317.7,359.5z"/>
<path class="st0" d="M100,345.6c-0.3-0.5-0.5-1-0.8-1.5C99.5,344.6,99.7,345.1,100,345.6z"/>
<path class="st0" d="M100.7,346.3c-0.2-0.2-0.5-0.5-0.7-0.7C100.2,345.8,100.4,346,100.7,346.3z"/>
</svg>
