<?xml version="1.0" encoding="utf-8"?>
<!-- Generator: Adobe Illustrator 21.1.0, SVG Export Plug-In . SVG Version: 6.00 Build 0)  -->
<svg version="1.1" id="레이어_1" xmlns="http://www.w3.org/2000/svg" xmlns:xlink="http://www.w3.org/1999/xlink" x="0px"
	 y="0px" viewBox="0 0 144.7 214.7" style="enable-background:new 0 0 144.7 214.7;" xml:space="preserve">
<style type="text/css">
	.st0{fill:#9BE3FD;}
	.st1{fill:#2BAFFC;}
	.st2{fill:#1373F9;}
</style>
<path class="st0" d="M71.1,71.4c-7.9-8.1-15.7-16.2-23.7-24.2C31.9,31.7,16.3,16.2,0,0c48.4,0,95.9,0,143.8,0c0,23.5,0,47.1,0,71.3
	c-1.6,0.1-3.3,0.3-5.1,0.3c-19.6,0-39.3,0-58.9,0.1c-2,0-4,0.8-6.1,1.3C72.8,72.4,72,71.9,71.1,71.4z"/>
<path class="st1" d="M71.1,71.4c0.9,0.5,1.7,1,2.6,1.5c23.3,23.2,46.6,46.4,71,70.7c-25.2,0-48.8,0-72.5,0c-23.9,0-47.7,0-71.6,0
	c-0.2-3.3-0.4-6.6-0.4-9.9c0-20.5,0-40.9,0-62.3C24,71.4,47.5,71.4,71.1,71.4z"/>
<path class="st2" d="M0.6,143.7c23.9,0,47.7,0,71.6,0c0,23.2,0,46.5,0,71.1c-2.5-1.9-4.2-2.8-5.4-4c-17.8-17.8-35.6-35.5-53.4-53.4
	C9,152.9,4.9,148.2,0.6,143.7z"/>
</svg>
