<svg xmlns="http://www.w3.org/2000/svg" width="24" height="24" viewBox="0 0 24 24">
  <g fill="none" fill-rule="evenodd">
    <rect width="24" height="24"/>
    <path stroke="#000" d="M12,21.2350091 C12.2106899,20.9479937 12.4408643,20.6296065 12.6861669,20.2843838 C13.5013525,19.1371455 14.3165065,17.9299255 15.0766426,16.720223 C15.5682065,15.937934 16.0206666,15.1795859 16.4257175,14.4540144 C17.752967,12.0765 18.5,10.1764404 18.5,9 C18.5,5.41014913 15.5898509,2.5 12,2.5 C8.41014913,2.5 5.5,5.41014913 5.5,9 C5.5,10.1764404 6.24703302,12.0765 7.57428246,14.4540144 C7.97933341,15.1795859 8.4317935,15.937934 8.92335742,16.720223 C9.68349352,17.9299255 10.4986475,19.1371455 11.3138331,20.2843838 C11.5591357,20.6296065 11.7893101,20.9479937 12,21.2350091 Z"/>
    <circle cx="12" cy="9" r="2.5" stroke="#000"/>
  </g>
</svg>
