<svg xmlns="http://www.w3.org/2000/svg" width="24" height="24" viewBox="0 0 24 24">
  <g fill="none" fill-rule="evenodd">
    <rect width="24" height="24"/>
    <path stroke="#000" d="M5.03207885,18.4575307 C5.4956767,17.8665219 6.213583,17.5 7,17.5 C8.38071187,17.5 9.5,18.6192881 9.5,20 C9.5,20.386337 9.41177016,20.7593535 9.24782386,21.0953796 C10.131572,21.3624357 11.0560569,21.5 12,21.5 C12.9439431,21.5 13.868428,21.3624357 14.7521761,21.0953796 C14.5882298,20.7593535 14.5,20.386337 14.5,20 C14.5,18.6192881 15.6192881,17.5 17,17.5 C17.786417,17.5 18.5043233,17.8665219 18.9679211,18.4575307 C20.0092378,17.3346885 20.766862,15.9768123 21.1692444,14.4943416 C21.1131232,14.4981046 21.0566839,14.5 21,14.5 C19.6192881,14.5 18.5,13.3807119 18.5,12 C18.5,10.6192881 19.6192881,9.5 21,9.5 C21.0566839,9.5 21.1131232,9.50189542 21.1692444,9.50565836 C20.766862,8.02318772 20.0092378,6.66531148 18.9679211,5.54246926 C18.5043233,6.13347805 17.786417,6.5 17,6.5 C15.6192881,6.5 14.5,5.38071187 14.5,4 C14.5,3.61366302 14.5882298,3.24064652 14.7521761,2.90462037 C13.868428,2.6375643 12.9439431,2.5 12,2.5 C11.0560569,2.5 10.131572,2.6375643 9.24782386,2.90462037 C9.41177016,3.24064652 9.5,3.61366302 9.5,4 C9.5,5.38071187 8.38071187,6.5 7,6.5 C6.213583,6.5 5.4956767,6.13347805 5.03207885,5.54246926 C3.99076219,6.66531148 3.23313801,8.02318772 2.83075558,9.50565836 C2.8868768,9.50189542 2.94331612,9.5 3,9.5 C4.38071187,9.5 5.5,10.6192881 5.5,12 C5.5,13.3807119 4.38071187,14.5 3,14.5 C2.94331612,14.5 2.8868768,14.4981046 2.83075558,14.4943416 C3.23313801,15.9768123 3.99076219,17.3346885 5.03207885,18.4575307 Z M12,15 C10.3431458,15 9,13.6568542 9,12 C9,10.3431458 10.3431458,9 12,9 C13.6568542,9 15,10.3431458 15,12 C15,13.6568542 13.6568542,15 12,15 Z"/>
  </g>
</svg>
