<svg xmlns="http://www.w3.org/2000/svg" width="24" height="24" viewBox="0 0 24 24">
  <g fill="none" fill-rule="evenodd">
    <rect width="24" height="24"/>
    <path fill="#000" fill-rule="nonzero" d="M9.99976606,5.39548715 L11.9997661,5.39548715 L11.9997661,17.8945124 C11.9997661,18.1705902 12.2235713,18.3943954 12.4996491,18.3943954 C12.7757269,18.3943954 12.9995321,18.1705902 12.9995321,17.8945124 L12.9995321,4.99976606 C12.9995321,3.89532576 12.1042064,3 10.9997661,3 C9.89532576,3 9,3.89532576 9,4.99976606 L9,18.3203506 C9,20.2531534 10.5668463,21.8199997 12.4996491,21.8199997 C14.4324519,21.8199997 15.9992982,20.2531534 15.9992982,18.3203506 L15.9992982,6.99961009 L17.9992982,6.99961009 L17.9992982,18.3203506 C17.9992982,21.3577229 15.5370214,23.8199997 12.4996491,23.8199997 C9.46227677,23.8199997 7,21.3577229 7,18.3203506 L7,4.99976606 C7,2.79075626 8.79075626,1 10.9997661,1 C13.2087759,1 14.9995321,2.79075626 14.9995321,4.99976606 L14.9995321,17.8945124 C14.9995321,19.2751596 13.8802964,20.3943954 12.4996491,20.3943954 C11.1190018,20.3943954 9.99976606,19.2751596 9.99976606,17.8945124 L9.99976606,5.39548715 Z" transform="rotate(45 12.5 12.41)"/>
  </g>
</svg>
