<svg xmlns="http://www.w3.org/2000/svg" width="24" height="24" viewBox="0 0 24 24">
  <g fill="none" fill-rule="evenodd">
    <rect width="24" height="24"/>
    <path fill="#000" fill-rule="nonzero" d="M11,19 C11,19.5522847 11.4477153,20 12,20 C12.5522847,20 13,19.5522847 13,19 L15,19 C15,20.6568542 13.6568542,22 12,22 C10.3431458,22 9,20.6568542 9,19 L11,19 Z M16,14.3851648 L16,10 C16,7.790861 14.209139,6 12,6 C9.790861,6 8,7.790861 8,10 L8,14.3851648 L6.95406592,17 L17.0459341,17 L16,14.3851648 Z M18,10 L18,14 L20,19 L4,19 L6,14 L6,10 C6,6.6862915 8.6862915,4 12,4 C15.3137085,4 18,6.6862915 18,10 Z M11,2 L13,2 L13,5 L11,5 L11,2 Z"/>
  </g>
</svg>
