<svg xmlns="http://www.w3.org/2000/svg" width="24" height="24" viewBox="0 0 24 24">
  <g fill="none" fill-rule="evenodd">
    <rect width="24" height="24"/>
    <path fill="#000" d="M17,5 L21,5 L21,7 L19,7 L19,19 C19,20.1045695 17.9553311,21 16.6666667,21 L7.33333333,21 C6.04466892,21 5,20.1045695 5,19 L5,7 L3,7 L3,5 L7,5 L7,4 C7,2.8954305 7.8954305,2 9,2 L15,2 C16.1045695,2 17,2.8954305 17,4 L17,5 Z M7,7 L7,19 L17,19 L17,7 L7,7 Z M9,9 L11,9 L11,17 L9,17 L9,9 Z M13,9 L15,9 L15,17 L13,17 L13,9 Z M9,5 L15,5 L15,4 L9,4 L9,5 Z"/>
  </g>
</svg>
