<svg xmlns="http://www.w3.org/2000/svg" width="24" height="24" viewBox="0 0 24 24">
  <g fill="none" fill-rule="evenodd">
    <rect width="24" height="24"/>
    <path fill="#000" fill-rule="nonzero" d="M4,9 L4,18 L20,18 L20,9 L16.2119387,9 L15.3119387,6 L8.6880613,6 L7.7880613,9 L4,9 Z M6.3,7 L7.2,4 L16.8,4 L17.7,7 L22,7 L22,20 L2,20 L2,7 L6.3,7 Z M12,15 C13.1045695,15 14,14.1045695 14,13 C14,11.8954305 13.1045695,11 12,11 C10.8954305,11 10,11.8954305 10,13 C10,14.1045695 10.8954305,15 12,15 Z M12,17 C9.790861,17 8,15.209139 8,13 C8,10.790861 9.790861,9 12,9 C14.209139,9 16,10.790861 16,13 C16,15.209139 14.209139,17 12,17 Z"/>
  </g>
</svg>
