<svg xmlns="http://www.w3.org/2000/svg" width="24" height="24" viewBox="0 0 24 24">
  <g fill="none" fill-rule="evenodd">
    <rect width="24" height="24"/>
    <path fill="#000" fill-rule="nonzero" d="M12,7 C9.36187796,7 6.83978246,8.59725872 4.41194953,12 C6.83978246,15.4027413 9.36187796,17 12,17 C14.638122,17 17.1602175,15.4027413 19.5880505,12 C17.1602175,8.59725872 14.638122,7 12,7 Z M12,19 C8.31810167,19 4.98476833,16.6666667 2,12 C4.98476833,7.33333333 8.31810167,5 12,5 C15.6818983,5 19.0152317,7.33333333 22,12 C19.0152317,16.6666667 15.6818983,19 12,19 Z M12,14 C13.1045695,14 14,13.1045695 14,12 C14,10.8954305 13.1045695,10 12,10 C10.8954305,10 10,10.8954305 10,12 C10,13.1045695 10.8954305,14 12,14 Z M12,16 C9.790861,16 8,14.209139 8,12 C8,9.790861 9.790861,8 12,8 C14.209139,8 16,9.790861 16,12 C16,14.209139 14.209139,16 12,16 Z"/>
  </g>
</svg>
