<svg xmlns="http://www.w3.org/2000/svg" width="24" height="24" viewBox="0 0 24 24">
  <g fill="none" fill-rule="evenodd">
    <rect width="24" height="24"/>
    <path fill="#000" fill-rule="nonzero" d="M19.0735964,11.674604 C20.3093524,10.3771612 20.3089035,8.23266908 19.0715563,6.93371292 C17.8862809,5.68928014 16.0083677,5.68885006 14.8243209,6.93185607 L12.0002315,9.89674111 L10.5520507,8.37636081 L9.17610076,6.9318126 C7.99281972,5.68946413 6.11368162,5.6898514 4.9287445,6.93378788 C3.6909525,8.2332237 3.69049935,10.3765109 4.92686035,11.6745258 L9.87567157,16.8698117 L12.0002483,19.1002607 L19.0735964,11.674604 Z M20.5197733,5.55434075 C22.4929542,7.6257686 22.4931815,10.9842007 20.5218187,13.0539706 L12.0002315,22 L8.42750584,18.2492377 L3.47871255,13.0539706 C1.50657704,10.9834902 1.50698613,7.62624229 3.48059892,5.55434075 C5.45206657,3.48471151 8.64740557,3.48267804 10.6191851,5.5470592 L10.5520507,5.61754069 L12.0002315,6.99695075 L13.4484124,5.61754069 L13.3812782,5.54705952 C15.3539622,3.48196792 18.5480778,3.48423751 20.5197733,5.55434075 Z"/>
  </g>
</svg>
