<svg xmlns="http://www.w3.org/2000/svg" width="24" height="24" viewBox="0 0 24 24">
  <g fill="none" fill-rule="evenodd">
    <rect width="24" height="24"/>
    <path fill="#000" fill-rule="nonzero" d="M15,11 L15,6 C15,4.34314575 13.6568542,3 12,3 C10.3431458,3 9,4.34314575 9,6 L9,11 L7,11 L7,6 C7,3.23857625 9.23857625,1 12,1 C14.7614237,1 17,3.23857625 17,6 L17,11 L15,11 Z M9,13.1079102 L9,18 C9,19.6568542 10.3431458,21 12,21 C13.6568542,21 15,19.6568542 15,18 L15,13.1079102 L17,13.1079102 L17,18 C17,20.7614237 14.7614237,23 12,23 C9.23857625,23 7,20.7614237 7,18 L7,13.1079102 L9,13.1079102 Z M11,8 L13,8 L13,16 L11,16 L11,8 Z" transform="rotate(45 12 12)"/>
  </g>
</svg>
