<svg xmlns="http://www.w3.org/2000/svg" width="24" height="24" viewBox="0 0 24 24">
  <g fill="none" fill-rule="evenodd">
    <rect width="24" height="24"/>
    <path fill="#000" fill-rule="nonzero" d="M12,18.6513217 C12.6185105,17.7596612 13.2294084,16.8406647 13.8065703,15.9221526 C14.2850038,15.1607597 14.7243384,14.4244108 15.115983,13.722854 C16.322764,11.5611359 17,9.83860329 17,9 C17,6.23857625 14.7614237,4 12,4 C9.23857625,4 7,6.23857625 7,9 C7,9.83860329 7.67723599,11.5611359 8.88401696,13.722854 C9.27566165,14.4244108 9.71499619,15.1607597 10.1934297,15.9221526 C10.7705916,16.8406647 11.3814895,17.7596612 12,18.6513217 Z M12,22.072998 C12,22.072998 5,12.8659932 5,9 C5,5.13400675 8.13400675,2 12,2 C15.8659932,2 19,5.13400675 19,9 C19,12.8659932 12,22.072998 12,22.072998 Z M12,10 C12.5522847,10 13,9.55228475 13,9 C13,8.44771525 12.5522847,8 12,8 C11.4477153,8 11,8.44771525 11,9 C11,9.55228475 11.4477153,10 12,10 Z M12,12 C10.3431458,12 9,10.6568542 9,9 C9,7.34314575 10.3431458,6 12,6 C13.6568542,6 15,7.34314575 15,9 C15,10.6568542 13.6568542,12 12,12 Z"/>
  </g>
</svg>
