<svg xmlns="http://www.w3.org/2000/svg" width="24" height="24" viewBox="0 0 24 24">
  <g fill="none" fill-rule="evenodd">
    <rect width="24" height="24"/>
    <path fill="#000" fill-rule="nonzero" d="M11,16 C13.7614237,16 16,13.7614237 16,11 C16,8.23857625 13.7614237,6 11,6 C8.23857625,6 6,8.23857625 6,11 C6,13.7614237 8.23857625,16 11,16 Z M16.6063847,15.1921711 L21.8142136,20.4 L20.4,21.8142136 L15.1921711,16.6063847 C14.0235906,17.4815965 12.5723351,18 11,18 C7.13400675,18 4,14.8659932 4,11 C4,7.13400675 7.13400675,4 11,4 C14.8659932,4 18,7.13400675 18,11 C18,12.5723351 17.4815965,14.0235906 16.6063847,15.1921711 Z"/>
  </g>
</svg>
