<svg xmlns="http://www.w3.org/2000/svg" width="24" height="24" viewBox="0 0 24 24">
  <g fill="none" fill-rule="evenodd">
    <rect width="24" height="24"/>
    <path fill="#000" fill-rule="nonzero" d="M5.90022224,17.1768225 C6.24873082,17.0615157 6.61907583,17 7,17 C8.71028449,17 10.1340538,18.2267172 10.4394323,19.8482759 C10.9483242,19.9487397 11.4701706,20 12,20 C12.5298294,20 13.0516758,19.9487397 13.5605677,19.8482759 C13.8659462,18.2267172 15.2897155,17 17,17 C17.3809242,17 17.7512692,17.0615157 18.0997778,17.1768225 C18.6863239,16.4866515 19.1521609,15.7020572 19.4757006,14.8555526 C18.5826736,14.2213392 18,13.178715 18,12 C18,10.821285 18.5826736,9.77866077 19.4757006,9.14444737 C19.1521609,8.29794281 18.6863239,7.51334849 18.0997778,6.82317751 C17.7512692,6.93848428 17.3809242,7 17,7 C15.2897155,7 13.8659462,5.7732828 13.5605677,4.15172413 C13.0516758,4.05126029 12.5298294,4 12,4 C11.4701706,4 10.9483242,4.05126029 10.4394323,4.15172413 C10.1340538,5.7732828 8.71028449,7 7,7 C6.61907583,7 6.24873082,6.93848428 5.90022224,6.82317751 C5.31367614,7.51334849 4.84783906,8.29794281 4.52429936,9.14444737 C5.4173264,9.77866077 6,10.821285 6,12 C6,13.178715 5.4173264,14.2213392 4.52429936,14.8555526 C4.84783906,15.7020572 5.31367614,16.4866515 5.90022224,17.1768225 Z M2.10394654,13.4471601 C2.23011392,13.4816092 2.36290926,13.5 2.5,13.5 C3.32842712,13.5 4,12.8284271 4,12 C4,11.1715729 3.32842712,10.5 2.5,10.5 C2.36290926,10.5 2.23011392,10.5183908 2.10394654,10.5528399 C2.47195021,8.01414424 3.79368561,5.78431999 5.69406375,4.23845614 C5.95173786,4.69316557 6.44003642,5 7,5 C7.82842712,5 8.5,4.32842712 8.5,3.5 C8.5,3.21235758 8.41903629,2.94362525 8.27865483,2.71534896 C9.42890884,2.25389649 10.6848041,2 12,2 C13.3151959,2 14.5710912,2.25389649 15.7213452,2.71534896 C15.5809637,2.94362525 15.5,3.21235758 15.5,3.5 C15.5,4.32842712 16.1715729,5 17,5 C17.5599636,5 18.0482621,4.69316557 18.3059362,4.23845614 C20.2063144,5.78431999 21.5280498,8.01414424 21.8960535,10.5528399 C21.7698861,10.5183908 21.6370907,10.5 21.5,10.5 C20.6715729,10.5 20,11.1715729 20,12 C20,12.8284271 20.6715729,13.5 21.5,13.5 C21.6370907,13.5 21.7698861,13.4816092 21.8960535,13.4471601 C21.5280498,15.9858558 20.2063144,18.21568 18.3059362,19.7615439 C18.0482621,19.3068344 17.5599636,19 17,19 C16.1715729,19 15.5,19.6715729 15.5,20.5 C15.5,20.7876424 15.5809637,21.0563748 15.7213452,21.284651 C14.5710912,21.7461035 13.3151959,22 12,22 C10.6848041,22 9.42890884,21.7461035 8.27865483,21.284651 C8.41903629,21.0563748 8.5,20.7876424 8.5,20.5 C8.5,19.6715729 7.82842712,19 7,19 C6.44003642,19 5.95173786,19.3068344 5.69406375,19.7615439 C3.79368561,18.21568 2.47195021,15.9858558 2.10394654,13.4471601 Z M12,13.75 C12.9664983,13.75 13.75,12.9664983 13.75,12 C13.75,11.0335017 12.9664983,10.25 12,10.25 C11.0335017,10.25 10.25,11.0335017 10.25,12 C10.25,12.9664983 11.0335017,13.75 12,13.75 Z M12,15.25 C10.2050746,15.25 8.75,13.7949254 8.75,12 C8.75,10.2050746 10.2050746,8.75 12,8.75 C13.7949254,8.75 15.25,10.2050746 15.25,12 C15.25,13.7949254 13.7949254,15.25 12,15.25 Z"/>
  </g>
</svg>
