<svg xmlns="http://www.w3.org/2000/svg" width="24" height="24" viewBox="0 0 24 24">
  <g fill="none" fill-rule="evenodd">
    <rect width="24" height="24"/>
    <path fill="#000" fill-rule="nonzero" d="M6.4244289,9 L4,9 L4,15 L6.4244289,15 L13,17.922476 L13,6.07752396 L6.4244289,9 Z M6,7 L15,3 L15,21 L6,17 L2,17 L2,7 L6,7 Z M17.5381769,21.5060211 L16.5299098,19.7787697 C19.2763471,18.1755622 21,15.2382377 21,12 C21,8.8014484 19.3186415,5.89503164 16.6258916,4.27805977 L17.6555019,2.56344538 C20.9442665,4.53831862 23,8.09188457 23,12 C23,15.9566744 20.8926405,19.5478838 17.5381769,21.5060211 Z M17.7249083,17.1648579 L16.3745951,15.689509 C17.4039385,14.7474023 18,13.4227678 18,12 C18,10.5621576 17.3911259,9.22475285 16.3426657,8.28151781 L17.6802981,6.7946622 C19.1460518,8.11331056 20,9.98902558 20,12 C20,13.9898489 19.1639791,15.8477482 17.7249083,17.1648579 Z"/>
  </g>
</svg>
