<svg xmlns="http://www.w3.org/2000/svg" width="24" height="24" viewBox="0 0 24 24">
  <g fill="none" fill-rule="evenodd">
    <rect width="24" height="24"/>
    <path fill="#000" fill-rule="nonzero" d="M12,20.9999474 L12,23 L10,21 L9.95618225,21 L9.95618225,20.9561823 L9,20 L9.95618225,19.0438177 L9.95618225,19 L10,19 L12,17 L12,18.9999254 C15.8690145,18.9822854 19,15.8404082 19,11.9672501 C19,9.42116437 17.6364359,7.11393569 15.4690328,5.86674485 L16.4665364,4.13325515 C19.2480044,5.7337979 21,8.69827503 21,11.9672501 C21,16.944979 16.9735875,20.9822888 12,20.9999419 Z M14.0438177,3.04381775 L15,4 L14.0438177,4.95618225 L14.0438177,5 L14,5 L12,7 L12,5.00007465 C8.13098546,5.01771462 5,8.15959183 5,12.0327499 C5,14.5788356 6.36356405,16.8860643 8.53096723,18.1332551 L7.53346362,19.8667449 C4.75199558,18.2662021 3,15.301725 3,12.0327499 C3,7.05502104 7.02641255,3.01771123 12,3.00005811 L12,1 L14,3 L14.0438177,3 L14.0438177,3.04381775 Z"/>
  </g>
</svg>
