<?xml version="1.0" encoding="utf-8"?>
<!-- Generator: Adobe Illustrator 21.1.0, SVG Export Plug-In . SVG Version: 6.00 Build 0)  -->
<svg version="1.1" id="레이어_1" xmlns="http://www.w3.org/2000/svg" xmlns:xlink="http://www.w3.org/1999/xlink" x="0px"
	 y="0px" viewBox="0 0 746.3 220" style="enable-background:new 0 0 746.3 220;" xml:space="preserve">
<style type="text/css">
	.st0{fill:#FFFFFF;}
	.st1{fill:none;stroke:#000000;stroke-width:2;}
	.st2{fill:none;stroke:#000000;stroke-width:2;stroke-linecap:square;}
	.st3{fill:#FFFFFF;stroke:#000000;stroke-width:2;}
	.st4{fill:none;stroke:#000000;stroke-width:2;stroke-linecap:round;}
</style>
<title>illust</title>
<desc>Created with Sketch.</desc>
<g id="page">
	<g id="about" transform="translate(-811.000000, -860.000000)">
		<g id="illust" transform="translate(811.000000, 861.000000)">
			<g id="bg_x2F_illust" transform="translate(0.000000, 49.000000)">
				<g id="Rectangle-21" transform="translate(388.500000, 212.000000) scale(-1, 1) translate(-388.500000, -212.000000) ">
					<g>
						<polygon id="path-1" class="st0" points="242.9,148 258.3,148 210.8,276 195.3,276 						"/>
					</g>
					<path class="st1" d="M243.6,149l-46.8,126h13.3l46.8-126H243.6z"/>
				</g>
				<g id="Group-7" transform="translate(97.000000, 14.000000)">
					<path id="Rectangle-10-Copy" class="st1" d="M170.7,1h131c4.4,0,8,3.6,8,8v84.9c0,4.4-3.6,8-8,8h-131c-4.4,0-8-3.6-8-8V9
						C162.7,4.6,166.2,1,170.7,1z"/>
					<path id="Line-2" class="st2" d="M163.4,87.4h144.2"/>
					<path id="Combined-Shape" class="st1" d="M248.5,102.1h-22.1v16.3H210v6.6h55.7v-6.6h-17.2V102.1z"/>
					<ellipse id="Oval-4" class="st1" cx="241.8" cy="26.6" rx="10.3" ry="10.3"/>
					<rect id="Rectangle-17" x="230.7" y="53.3" class="st1" width="15.2" height="15.1"/>
				</g>
				<path id="Combined-Shape_1_" class="st3" d="M297.2,128.7c2.1,1.7,5.2,3.4,6.6,6.2c2.3,4.7,11.5,0.5,12.7-3.1
					c1.2-3.6-2.6-8.1-8.4-9.9c-4.8-1.5-9.4-0.9-11.6,1.4c-0.6,0.2-1.2,0.8-1.8,1.7c-1.2,2-1.4,2.4-2.3,4c-1.6,3-2.4,5.2-1,6.3
					c0.6,0.5,2.3,1,3,0.3c0.8-0.8,0.7-3,2-5.3C296.7,129.7,297,129.2,297.2,128.7z"/>
				<g id="Rectangle">
					<g>
						<rect id="path-2" x="274.7" y="132" class="st0" width="37" height="7"/>
					</g>
					<rect x="275.7" y="133" class="st1" width="35" height="5"/>
				</g>
				<path id="Rectangle-10" class="st1" d="M164.2,139l10.5,10h397.4l9.9-10H164.2z"/>
				<path id="Rectangle-12" class="st1" d="M231.2,122L231.2,122c2.5,0,4.5,2,4.5,4.5v1c0,2.5-2,4.5-4.5,4.5l0,0
					c-2.5,0-4.5-2-4.5-4.5v-1C226.7,124,228.7,122,231.2,122z"/>
				<g id="Rectangle-12_1_">
					<g>
						<path id="path-3" class="st0" d="M209.3,114.9H227c1.5,0,2.8,1.3,2.8,2.8v18.6c0,1.5-1.3,2.8-2.8,2.8h-17.7
							c-1.5,0-2.8-1.3-2.8-2.8v-18.6C206.5,116.2,207.8,114.9,209.3,114.9z"/>
					</g>
					<path class="st1" d="M209.7,115h17c1.7,0,3,1.3,3,3v18c0,1.7-1.3,3-3,3h-17c-1.7,0-3-1.3-3-3v-18
						C206.7,116.3,208,115,209.7,115z"/>
				</g>
				<path id="Path-2" d="M408.7,2.9c-22.6-4.5-30.6,9.7-27.3,30.1S399.4,46.9,408.7,2.9z"/>
				<path id="Oval-3" class="st3" d="M410.8,54.4c12.4,0,17.1-14.6,17.4-27.2c0-0.2,5.5,5.5,5.5,5.3c0-13-10.3-18.6-22.9-18.6
					c-12.6,0-26.1,6.4-26.1,19.3c0,7.1,0.1,16.8,5,21.1C393.7,58,405.1,54.4,410.8,54.4z"/>
				<path id="Combined-Shape_2_" d="M397.8,65.6l-18.4,5c0,0.1,0,0.3,0,0.4l-35.9,50.8h-31.7v18h43v-1.7l0.2,0.2l21.9-30.9
					c-0.5,8.4-1.1,17-1.6,26.1c-1.3,23.2-8.5,42.9-21.6,59.3l93.1,4.2V59.4l-24.9,2.7l-0.2-8.7c0.2-2.4-3-3.5-9.7-3.4
					s-11.7,2.3-14.9,6.8L397.8,65.6z"/>
				<g id="Group" transform="translate(224.000000, 58.000000)">
					<g id="Rectangle-19">
						<g>
							<path id="path-4" class="st0" d="M192.1,0h48.6l0,0c5.5,0,10,4.5,10,10c0,0.4,0,0.9-0.1,1.3l-19.4,150l0,0
								c-0.6,5-4.9,8.7-9.9,8.7h-48.6l0,0c-5.5,0-10-4.5-10-10c0-0.4,0-0.9,0.1-1.3l19.4-150l0,0C182.8,3.7,187,0,192.1,0z"/>
						</g>
						<path class="st1" d="M192.1,1c-4.5,0-8.3,3.4-8.9,7.8l-19.4,150c0,0.4-0.1,0.8-0.1,1.2c0,5,4,9,9,9h48.6
							c4.5,0,8.3-3.4,8.9-7.8l19.4-150c0-0.4,0.1-0.8,0.1-1.2c0-5-4-9-9-9H192.1z"/>
					</g>
					<g id="Rectangle-19_1_">
						<g>
							<path id="path-5" class="st0" d="M209.4,0h48.3l0,0c5.5,0,10,4.5,10,10c0,0.3,0,0.7-0.1,1l-15.7,151l0,0
								c-0.5,5.1-4.8,9-9.9,9h-48.3l0,0c-5.5,0-10-4.5-10-10c0-0.3,0-0.7,0.1-1L199.4,9l0,0C199.9,3.9,204.2,0,209.4,0z"/>
						</g>
						<path class="st1" d="M209.4,1c-4.6,0-8.5,3.5-9,8.1l-15.7,151c0,0.3,0,0.6,0,0.9c0,5,4,9,9,9H242c4.6,0,8.5-3.5,9-8.1
							l15.7-151c0-0.3,0-0.6,0-0.9c0-5-4-9-9-9H209.4z"/>
					</g>
				</g>
				<g id="Rectangle-21_1_">
					<g>
						<polygon id="path-6" class="st0" points="243.2,148 258.7,148 211.1,276 195.7,276 						"/>
					</g>
					<path class="st1" d="M243.9,149l-46.8,126h13.3l46.8-126H243.9z"/>
				</g>
				<path id="Path-2_1_" d="M422.8,53.9c10.1-17,19.2-22.3,12.7-39.1C431.4,4,426,0.1,410.5,0c-15.8-0.1-21.3,20.8-12.8,36.9
					c2.9,5.4,5.7,12.1,12.3,15.6C412.7,54,417.7,54.1,422.8,53.9z"/>
				<polygon id="Triangle-3" class="st3" points="363.2,46 371.7,62 354.7,62 				"/>
				<rect id="Rectangle-15" x="273.7" y="37" width="33" height="4"/>
				<rect id="Rectangle-15-Copy" x="273.7" y="46" width="33" height="4"/>
				<rect id="Rectangle-15-Copy-2" x="273.7" y="54" width="33" height="4"/>
				<rect id="Rectangle-15-Copy-3" x="273.7" y="63" width="21" height="4"/>
			</g>
			<g id="Group-2" transform="translate(320.000000, 0.000000)">
				<circle id="Oval-5" class="st1" cx="188.7" cy="27" r="27"/>
				<path id="Line-4" class="st4" d="M188.7,28l12,7.8"/>
				<path id="Line" class="st4" d="M188.7,27.6V9"/>
			</g>
		</g>
	</g>
</g>
<rect x="-12.3" y="217" width="758.7" height="3"/>
</svg>
