<?xml version="1.0" encoding="UTF-8"?>
<svg width="374px" height="204px" viewBox="0 0 374 204" version="1.1" xmlns="http://www.w3.org/2000/svg" xmlns:xlink="http://www.w3.org/1999/xlink">
    <!-- Generator: Sketch 47.1 (45422) - http://www.bohemiancoding.com/sketch -->
    <title>bg/illustration</title>
    <desc>Created with Sketch.</desc>
    <defs>
        <rect id="path-1" x="139" y="162" width="46" height="9"></rect>
        <rect id="path-2" x="54" y="140" width="31" height="32" rx="3"></rect>
        <path d="M317.461488,72 L402.856835,72 L402.856835,72 C408.379683,72 412.856835,76.4771525 412.856835,82 C412.856835,82.5384029 412.813354,83.0759264 412.726815,83.607329 L382.173,271.226373 L382.173,271.226373 C381.385016,276.065077 377.205467,279.619044 372.303021,279.619044 L286.907673,279.619044 L286.907673,279.619044 C281.384826,279.619044 276.907673,275.141891 276.907673,269.619044 C276.907673,269.080641 276.951155,268.543118 277.037694,268.011715 L307.591509,80.392671 L307.591509,80.392671 C308.379493,75.5539668 312.559042,72 317.461488,72 Z" id="path-3"></path>
        <path d="M342.754738,72 L428.241031,72 L428.241031,72 C433.763878,72 438.241031,76.4771525 438.241031,82 C438.241031,82.4364144 438.212462,82.8723607 438.155508,83.3050428 L413.327135,271.927475 L413.327135,271.927475 C412.672213,276.902951 408.431053,280.622432 403.412658,280.622432 L317.926365,280.622432 L317.926365,280.622432 C312.403517,280.622432 307.926365,276.145279 307.926365,270.622432 C307.926365,270.186017 307.954933,269.750071 308.011887,269.317389 L332.84026,80.6949572 L332.84026,80.6949572 C333.495182,75.7194804 337.736342,72 342.754738,72 Z" id="path-4"></path>
        <polygon id="path-5" points="100.31149 182 119.208162 182 60.8966725 339.244569 42 339.244569"></polygon>
    </defs>
    <g id="page" stroke="none" stroke-width="1" fill="none" fill-rule="evenodd">
        <g id="FullHD-1080p" transform="translate(-1546.000000, -876.000000)">
            <g id="bg/illustration" transform="translate(1546.000000, 876.000000)">
                <g id="Group-7" transform="translate(119.000000, 17.000000)" stroke="#000000" stroke-width="2">
                    <rect id="Rectangle-10-Copy" x="1" y="1" width="181" height="124.530612" rx="8"></rect>
                    <path d="M2.11560694,107.55102 L179.221069,107.55102" id="Line-2" stroke-linecap="square"></path>
                    <path d="M106.895954,125.421769 L79.2774566,125.421769 L79.2774566,145.455782 L59.1791908,145.455782 L59.1791908,154 L128.052023,154 L128.052023,145.455782 L106.895954,145.455782 L106.895954,125.421769 Z" id="Combined-Shape"></path>
                    <ellipse id="Oval-4" cx="98.3757225" cy="32.6870748" rx="12.6936416" ry="12.6530612"></ellipse>
                    <rect id="Rectangle-17" x="84.566474" y="65.3197279" width="19.1560694" height="19.0884354"></rect>
                </g>
                <path d="M167.119491,157.430489 C169.682883,159.505083 173.557414,161.619092 175.271249,165.069098 C178.15712,170.878448 189.499805,165.727589 190.937128,161.303964 C192.374451,156.880338 187.69096,151.393932 180.476257,149.049733 C174.572399,147.131454 168.803037,147.91172 166.11385,150.682569 C165.350687,150.951044 164.600177,151.687354 163.965721,152.739475 C162.506463,155.159368 162.229969,155.693729 161.141641,157.720858 C159.162944,161.406398 158.19488,164.16726 159.833489,165.542216 C160.580313,166.168875 162.716602,166.744574 163.581874,165.904575 C164.615097,164.901531 164.430719,162.186324 166.047053,159.324814 C166.444983,158.620329 166.802327,157.992886 167.119491,157.430489 Z" id="Combined-Shape" stroke="#000000" stroke-width="2" fill="#FFFFFF"></path>
                <g id="Rectangle">
                    <use fill="#FFFFFF" fill-rule="evenodd" xlink:href="#path-1"></use>
                    <rect stroke="#000000" stroke-width="2" x="140" y="163" width="44" height="7"></rect>
                </g>
                <path d="M2.50159958,170 L15.8886183,182.738287 L455.156292,182.738287 L455.156292,170 L2.50159958,170 Z" id="Rectangle-10" stroke="#000000" stroke-width="2"></path>
                <rect id="Rectangle-12" stroke="#000000" stroke-width="2" x="80" y="149" width="12" height="13" rx="6"></rect>
                <g id="Rectangle-12">
                    <use fill="#FFFFFF" fill-rule="evenodd" xlink:href="#path-2"></use>
                    <rect stroke="#000000" stroke-width="2" x="55" y="141" width="29" height="30" rx="3"></rect>
                </g>
                <path d="M302.791834,3.05154192 C275.570179,-2.57478312 265.874125,15.0312814 269.858979,40.228142 C273.843833,65.4250026 291.596689,57.5113514 302.791834,3.05154192 Z" id="Path-2" fill="#000000"></path>
                <path d="M306.311342,66.3796329 C321.700173,66.3796329 327.482325,48.5695032 327.90302,33.1775733 C327.910283,32.911835 334.65635,39.9345296 334.65635,39.6659162 C334.65635,23.8388393 321.965858,17 306.311342,17 C290.656825,17 274,24.8000139 274,40.6270908 C274,49.3088263 274.128399,61.1243226 280.159991,66.3796329 C285.124182,70.7049186 299.243905,66.3796329 306.311342,66.3796329 Z" id="Oval-3" stroke="#000000" stroke-width="2" fill="#FFFFFF"></path>
                <path d="M289.705094,80.1906561 L267.11242,86.3997975 C267.099118,86.5639176 267.085824,86.7281755 267.072537,86.8925712 L222.957093,149.429724 L184,149.429724 L184,171.537155 L236.829407,171.537155 L236.829407,169.460321 L237.024422,169.653747 L263.856373,131.656986 C263.198465,141.938785 262.563075,152.633921 261.950203,163.742394 C260.377702,192.244367 251.533592,216.578579 235.417871,236.74503 L349.670909,241.919606 L349.670909,72.5800829 L319.082874,75.8942842 L318.8433,65.2405468 C319.109954,62.3170831 315.143685,60.9052122 306.94449,61.0049341 C298.745296,61.1046561 292.631208,63.8814497 288.602226,69.3353151 L289.705094,80.1906561 Z" id="Combined-Shape" fill="#000000"></path>
                <g id="Rectangle-19">
                    <use fill="#FFFFFF" fill-rule="evenodd" xlink:href="#path-3"></use>
                    <path stroke="#000000" stroke-width="2" d="M317.461488,73 C313.049287,73 309.287693,76.1985701 308.578507,80.5534039 L278.024692,268.172448 C277.946807,268.65071 277.907673,269.134481 277.907673,269.619044 C277.907673,274.589607 281.937111,278.619044 286.907673,278.619044 L372.303021,278.619044 C376.715222,278.619044 380.476816,275.420474 381.186002,271.06564 L411.739817,83.4465961 C411.817702,82.9683338 411.856835,82.4845626 411.856835,82 C411.856835,77.0294373 407.827398,73 402.856835,73 L317.461488,73 Z"></path>
                </g>
                <g id="Rectangle-19">
                    <use fill="#FFFFFF" fill-rule="evenodd" xlink:href="#path-4"></use>
                    <path stroke="#000000" stroke-width="2" d="M342.754738,73 C338.238182,73 334.421138,76.3475323 333.831708,80.8254615 L309.003335,269.447893 C308.952076,269.837307 308.926365,270.229659 308.926365,270.622432 C308.926365,275.592995 312.955802,279.622432 317.926365,279.622432 L403.412658,279.622432 C407.929214,279.622432 411.746258,276.274899 412.335688,271.79697 L437.164061,83.1745385 C437.215319,82.7851247 437.241031,82.3927729 437.241031,82 C437.241031,77.0294373 433.211594,73 428.241031,73 L342.754738,73 Z"></path>
                </g>
                <g id="Rectangle-21">
                    <use fill="#FFFFFF" fill-rule="evenodd" xlink:href="#path-5"></use>
                    <path stroke="#000000" stroke-width="2" d="M101.007201,183 L43.4373776,338.244569 L60.2009611,338.244569 L117.770785,183 L101.007201,183 Z"></path>
                </g>
                <path d="M320.982326,65.8130907 C333.4029,45.0056432 344.671353,38.6431098 336.723311,18.0545011 C331.618942,4.83214479 325.0152,0.0819327559 305.743816,0.000201879246 C286.209199,-0.0826453859 279.404811,25.3506201 289.935247,45.0056432 C293.477706,51.6176301 296.931682,59.7196233 305.140252,64.0494515 C308.551627,65.8488718 314.742266,66.0768766 320.982326,65.8130907 Z" id="Path-2" fill="#000000"></path>
                <polygon id="Triangle-3" stroke="#000000" stroke-width="2" fill="#FFFFFF" points="247.565881 57 258.131763 77.2125084 237 77.2125084"></polygon>
                <rect id="Rectangle-15" fill="#000000" x="137" y="45" width="41" height="5"></rect>
                <rect id="Rectangle-15-Copy" fill="#000000" x="137" y="56" width="41" height="5"></rect>
                <rect id="Rectangle-15-Copy-2" fill="#000000" x="137" y="66" width="41" height="5"></rect>
                <rect id="Rectangle-15-Copy-3" fill="#000000" x="137" y="77" width="26" height="5"></rect>
            </g>
        </g>
    </g>
</svg>