<svg xmlns="http://www.w3.org/2000/svg" width="24" height="24" viewBox="0 0 24 24">
  <g fill="none" fill-rule="evenodd">
    <rect width="24" height="24"/>
    <path fill="#000" fill-rule="nonzero" d="M9.17070571,20 L14.8292943,20 C14.4174579,21.1651924 13.3062188,22 12,22 C10.6937812,22 9.58254212,21.1651924 9.17070571,20 Z M9,19 L15,19 L9,19 Z M18,10 L18,14 L20,19 L4,19 L6,14 L6,10 C6,6.6862915 8.6862915,4 12,4 C15.3137085,4 18,6.6862915 18,10 Z M11,2 L13,2 L13,5 L11,5 L11,2 Z"/>
  </g>
</svg>
