<svg xmlns="http://www.w3.org/2000/svg" width="24" height="24" viewBox="0 0 24 24">
  <g fill="none" fill-rule="evenodd">
    <rect width="24" height="24"/>
    <path fill="#000" fill-rule="nonzero" d="M6.3,7 L7.2,4 L16.8,4 L17.7,7 L22,7 L22,20 L2,20 L2,7 L6.3,7 Z M12,15 C10.8954305,15 10,14.1045695 10,13 C10,11.8954305 10.8954305,11 12,11 C13.1045695,11 14,11.8954305 14,13 C14,14.1045695 13.1045695,15 12,15 Z M12,17 C14.209139,17 16,15.209139 16,13 C16,10.790861 14.209139,9 12,9 C9.790861,9 8,10.790861 8,13 C8,15.209139 9.790861,17 12,17 Z"/>
  </g>
</svg>
