<svg xmlns="http://www.w3.org/2000/svg" width="24" height="24" viewBox="0 0 24 24">
  <g fill="none" fill-rule="evenodd">
    <rect width="24" height="24"/>
    <path fill="#000" fill-rule="nonzero" d="M8,22 L8,20 L16,20 L16,22 L8,22 Z M13,21.5 L11,21.5 L11,17.5 L13,17.5 L13,21.5 Z M5,12 L7,12 C7,14.7614237 9.23857625,17 12,17 C14.7614237,17 17,14.7614237 17,12 L19,12 C19,15.8659932 15.8659932,19 12,19 C8.13400675,19 5,15.8659932 5,12 Z M12,2 C13.6568542,2 15,3.34314575 15,5 L15,13 C15,14.6568542 13.6568542,16 12,16 C10.3431458,16 9,14.6568542 9,13 L9,5 C9,3.34314575 10.3431458,2 12,2 Z"/>
  </g>
</svg>
