<svg xmlns="http://www.w3.org/2000/svg" width="24" height="24" viewBox="0 0 24 24">
  <g fill="none" fill-rule="evenodd">
    <rect width="24" height="24"/>
    <path fill="#000" fill-rule="nonzero" d="M2.10394654,13.4471601 C2.23011392,13.4816092 2.36290926,13.5 2.5,13.5 C3.32842712,13.5 4,12.8284271 4,12 C4,11.1715729 3.32842712,10.5 2.5,10.5 C2.36290926,10.5 2.23011392,10.5183908 2.10394654,10.5528399 C2.47195021,8.01414424 3.79368561,5.78431999 5.69406375,4.23845614 C5.95173786,4.69316557 6.44003642,5 7,5 C7.82842712,5 8.5,4.32842712 8.5,3.5 C8.5,3.21235758 8.41903629,2.94362525 8.27865483,2.71534896 C9.42890884,2.25389649 10.6848041,2 12,2 C13.3151959,2 14.5710912,2.25389649 15.7213452,2.71534896 C15.5809637,2.94362525 15.5,3.21235758 15.5,3.5 C15.5,4.32842712 16.1715729,5 17,5 C17.5599636,5 18.0482621,4.69316557 18.3059362,4.23845614 C20.2063144,5.78431999 21.5280498,8.01414424 21.8960535,10.5528399 C21.7698861,10.5183908 21.6370907,10.5 21.5,10.5 C20.6715729,10.5 20,11.1715729 20,12 C20,12.8284271 20.6715729,13.5 21.5,13.5 C21.6370907,13.5 21.7698861,13.4816092 21.8960535,13.4471601 C21.5280498,15.9858558 20.2063144,18.21568 18.3059362,19.7615439 C18.0482621,19.3068344 17.5599636,19 17,19 C16.1715729,19 15.5,19.6715729 15.5,20.5 C15.5,20.7876424 15.5809637,21.0563748 15.7213452,21.284651 C14.5710912,21.7461035 13.3151959,22 12,22 C10.6848041,22 9.42890884,21.7461035 8.27865483,21.284651 C8.41903629,21.0563748 8.5,20.7876424 8.5,20.5 C8.5,19.6715729 7.82842712,19 7,19 C6.44003642,19 5.95173786,19.3068344 5.69406375,19.7615439 C3.79368561,18.21568 2.47195021,15.9858558 2.10394654,13.4471601 Z M12,15.25 C13.7949254,15.25 15.25,13.7949254 15.25,12 C15.25,10.2050746 13.7949254,8.75 12,8.75 C10.2050746,8.75 8.75,10.2050746 8.75,12 C8.75,13.7949254 10.2050746,15.25 12,15.25 Z M12,13.75 C12.9664983,13.75 13.75,12.9664983 13.75,12 C13.75,11.0335017 12.9664983,10.25 12,10.25 C11.0335017,10.25 10.25,11.0335017 10.25,12 C10.25,12.9664983 11.0335017,13.75 12,13.75 Z"/>
  </g>
</svg>
