<svg xmlns="http://www.w3.org/2000/svg" width="22" height="15" viewBox="0 0 22 15">
  <g fill="none" fill-rule="evenodd" transform="translate(-1 -5)">
    <rect width="24" height="24"/>
    <path fill="#FFF" fill-rule="nonzero" d="M20.8675779,7.02362926 L15.3551884,7.02362926 L15.3551884,5.59325524 L20.8680382,5.59325524 L20.8680382,7.02362926 L20.8675779,7.02362926 Z M11.6854621,12.8891245 C12.0411464,13.4646404 12.2188862,14.1634238 12.2188862,14.9838183 C12.2188862,15.8322113 12.0184877,16.5932963 11.6107858,17.2655775 C11.3514136,17.7104521 11.0293848,18.0862392 10.6424491,18.3887711 C10.2066668,18.7386436 9.69073546,18.9785532 9.09762152,19.1067365 C8.50261511,19.2351336 7.85860876,19.3 7.16488641,19.3 L1,19.3 L1,5 L7.61089827,5 C9.27725382,5.02831895 10.4586226,5.53266338 11.1562322,6.52313194 C11.5748287,7.13060008 11.7822344,7.85951911 11.7822344,8.70678997 C11.7822344,9.58104398 11.5723224,10.2805754 11.1496341,10.8120633 C10.9145061,11.1100534 10.567159,11.3811139 10.1073371,11.6257789 C10.8038215,11.8921373 11.3322842,12.3115783 11.6854621,12.8891245 Z M4.15696606,10.6377682 L7.05358804,10.6377682 C7.6488502,10.6377682 8.13005199,10.5195767 8.50067148,10.2833005 C8.87103522,10.0473983 9.05583349,9.62806412 9.05583349,9.0259926 C9.05583349,8.36081792 8.81114074,7.91930949 8.32057884,7.70681052 C7.8989135,7.55917797 7.35940282,7.48314427 6.70475766,7.48314427 L4.15696606,7.48314427 L4.15696606,10.6377682 Z M9.33474434,14.7795479 C9.33474434,14.0367365 9.04412056,13.5232018 8.4640494,13.2476531 C8.13966784,13.091044 7.6819942,13.0110029 7.09517149,13.0052857 L4.15696606,13.0052857 L4.15696606,16.8161611 L7.04970078,16.8161611 C7.64399113,16.8161611 8.10396643,16.7348911 8.43591792,16.5653514 C9.03455586,16.2536293 9.33474434,15.660374 9.33474434,14.7795479 Z M22.9128389,12.453173 C22.9794338,12.9210234 23.00956,13.5998233 22.9973356,14.4870612 L15.8581793,14.4870612 C15.8975634,15.5164817 16.2377497,16.2363707 16.8829324,16.6483313 C17.2720164,16.9066749 17.7437558,17.0328278 18.2961558,17.0328278 C18.8786309,17.0328278 19.3533881,16.8789971 19.7188416,16.5627867 C19.9179613,16.3951706 20.0936041,16.1585738 20.2454629,15.8600493 L22.8622022,15.8600493 C22.7936637,16.4680518 22.4785911,17.0847102 21.9123811,17.7113605 C21.0351392,18.7073859 19.8048216,19.2068146 18.224753,19.2068146 C16.9194522,19.2068146 15.7690792,18.7856104 14.770565,17.9462474 C13.7753755,17.1039457 13.2755558,15.7379038 13.2755558,13.8429388 C13.2755558,12.0659515 13.7242785,10.7058405 14.6247417,9.75913276 C15.5285295,8.81066173 16.6949119,8.33859022 18.1326352,8.33859022 C18.9848145,8.33859022 19.7530085,8.49771065 20.4383426,8.81760789 C21.1215284,9.13782573 21.6861528,9.64179614 22.1308348,10.3344349 C22.5332685,10.9444143 22.7920781,11.6497164 22.9128389,12.453173 Z M20.3371716,12.7200123 C20.2891946,12.0081915 20.0616876,11.4694369 19.6520421,11.1012372 C19.2457723,10.7320222 18.7382293,10.5466667 18.1326352,10.5466667 C17.4735401,10.5466667 16.964616,10.7447924 16.6029986,11.1342047 C16.2389261,11.5228155 16.012391,12.0511508 15.9195571,12.7200658 L20.3371716,12.7200658 L20.3371716,12.7200123 Z"/>
  </g>
</svg>
