<svg xmlns="http://www.w3.org/2000/svg" width="16" height="22" viewBox="0 0 16 22">
  <g fill="none" fill-rule="evenodd" transform="translate(-4 -1)">
    <rect width="24" height="24"/>
    <path fill="#FFF" d="M14.7216466,6.83957052 C15.9596674,5.11476766 17.2577751,3.56872222 18.7220373,2.11346276 C18.5544586,3.41405222 16.5159799,5.83470644 14.7216466,6.83957052 M14.2186392,8.51266399 C13.8068472,8.901139 13.4012945,9.29563586 12.9930291,9.68751452 C12.9682755,9.67239444 12.943454,9.6573398 12.9187004,9.64221971 C13.479828,8.74869446 14.0409556,7.85530012 14.6256839,6.92420375 C14.6675277,7.01008061 14.6747164,7.0270989 14.6837362,7.0430699 C15.0481911,7.68636095 14.6526755,8.10317794 14.2186392,8.51266399 M13.3979036,13.7006872 C13.8313296,13.451893 14.3009026,13.258801 14.7647789,13.0643344 C14.9243551,12.9974394 15.1165518,12.9862466 15.2948458,12.9810757 C15.8167745,12.9660211 16.1446075,13.24571 16.0572577,13.7419238 C15.9606168,14.2911561 15.8278967,14.8659813 15.5571665,15.3496278 C14.5252451,17.1932968 12.8863511,18.3786856 10.8944635,19.1380937 C9.73375544,19.580569 8.52272628,19.8298214 7.28674004,19.9739531 C7.23452005,19.9801059 7.18080805,19.974804 7.03703352,19.974804 C7.57944328,19.2695272 8.06278342,18.6023451 8.58722137,17.9667123 C9.95931869,16.3037643 11.4876691,14.7973191 13.3979036,13.7006872 M19.2535961,1.03051094 C18.9976503,1.10172591 18.7289547,1.20370469 18.5250933,1.36249835 C17.8243281,1.90845792 17.0868733,2.42921734 16.4774591,3.06190469 C14.9946147,4.6014701 13.827803,6.37425142 12.7354557,8.18178932 C10.5810079,11.7469884 8.47559265,15.3396786 6.34908595,18.9205869 C6.17703124,19.2104868 5.99914417,19.497114 5.80918546,19.809334 C5.47341767,19.6411803 5.16843934,19.4884739 4.84901573,19.3285021 C4.77516174,19.4554846 4.71066666,19.5664307 4.62765721,19.7091225 C4.93100791,19.91236 5.2160477,20.1032921 5.50929349,20.2997878 C5.03517663,21.1784548 4.4354605,22.0013541 4,22.9073813 C4.02916182,22.938276 4.05825581,22.9691053 4.08741763,23 C4.45234723,22.8475555 4.81822628,22.6974019 5.18186734,22.5422737 C5.71003529,22.3169778 6.15058215,22.0215143 6.19873306,21.393736 C6.2074816,21.279059 6.26566959,21.1618947 6.32378977,21.0577559 C6.46783558,20.7992743 6.65474247,20.6526553 6.99953007,20.6042841 C8.22480104,20.4322031 9.45943092,20.2703985 10.6570321,19.9774222 C12.8084959,19.4510337 14.7008264,18.4356968 16.2548799,16.8819277 C17.0145113,16.1223887 17.5736043,15.2550454 17.7288401,14.1825009 C17.9240886,12.8336712 17.080634,11.9564442 15.6849359,12.1082342 C15.2198389,12.1588963 14.7472819,12.2667006 14.3123639,12.4321052 C12.8678368,12.9815993 11.7046872,13.9345577 10.5903668,14.9471454 C10.2775894,15.2314162 9.97186505,15.5228215 9.66288544,15.8109541 C9.67061671,15.683317 9.70961216,15.5829746 9.76447707,15.4915341 C10.837225,13.7032399 12.0563245,12.0169246 13.5125163,10.4969302 C14.087411,9.89683939 14.6900433,9.32005055 15.239574,8.69927599 C15.6592329,8.22512048 15.9532246,7.68564095 15.5887019,7.04117171 C17.25296,6.1687884 18.5739902,4.99046875 19.3910636,3.3548155 C19.6656594,2.80499409 19.8577204,2.20235055 19.9860324,1.60356885 C20.0784008,1.17215541 19.6988903,0.906670214 19.2535961,1.03051094"/>
  </g>
</svg>
