<svg xmlns="http://www.w3.org/2000/svg" width="22" height="22" viewBox="0 0 22 22">
  <g fill="none" fill-rule="evenodd" transform="translate(-1 -1)">
    <rect width="24" height="24"/>
    <path fill="#FFF" fill-rule="nonzero" d="M11.9770302,1 C5.9142181,1.0004594 1,5.91498376 1,11.977949 C1,18.0398422 5.9142181,22.9549281 11.9770302,22.9549281 C18.0398422,22.9549281 22.9542645,18.0398422 22.9549281,11.977949 C22.9542645,5.91498376 18.0398422,1.0004594 11.9770302,1 Z M18.703058,6.69172158 C19.774116,8.05179118 20.4447332,9.73588863 20.5293132,11.575007 C19.290065,11.3119768 18.1191647,11.1839582 17.027587,11.1839582 L17.027587,11.183703 L17.019522,11.183703 C16.1406961,11.183703 15.3159258,11.2634849 14.5385754,11.401355 C14.3496613,10.9383341 14.1581439,10.493587 13.9651972,10.0676241 C15.6964084,9.30829234 17.3580974,8.22707657 18.703058,6.69172158 Z M11.9770302,3.41336427 C13.9971508,3.41336427 15.8503573,4.11961021 17.3175684,5.29535963 C16.1948028,6.63955452 14.7128399,7.61306729 13.1118933,8.30047796 C11.9869838,6.12523434 10.9,4.56910441 10.1569513,3.61774478 C10.7451323,3.48722506 11.3522506,3.41336427 11.9770302,3.41336427 Z M8.19420418,4.30612529 C8.78866357,5.0082877 9.97885847,6.55272854 11.2500603,8.96405104 C8.66472854,9.73364269 6.06137819,9.91444084 4.48620882,9.91398144 C4.44129002,9.91398144 4.39688167,9.91398144 4.35329002,9.91352204 L4.35186079,9.91352204 C4.08658469,9.91352204 3.85846868,9.90933643 3.6680232,9.9035174 C4.28254292,7.44451972 5.96715081,5.40801392 8.19420418,4.30612529 Z M3.41264965,11.977949 C3.41264965,11.9376752 3.41407889,11.8967378 3.41647796,11.8545754 C3.66103016,11.8636102 3.97464501,11.8713689 4.35211601,11.8713689 L4.35425986,11.8713689 C6.07582367,11.8601392 9.08165661,11.716297 12.1278654,10.7545754 C12.2939118,11.117652 12.4582738,11.4956845 12.6207471,11.8881624 C10.5864872,12.568529 8.98431555,13.6524501 7.7992761,14.7318794 C6.65844084,15.7709838 5.88767517,16.8001856 5.43731323,17.487239 C4.17708585,15.9951694 3.41331323,14.0776984 3.41264965,11.977949 Z M11.9770302,20.5426868 C10.0710951,20.5426868 8.31441299,19.9123434 6.88931323,18.8546589 C7.19220882,18.3558051 7.84164269,17.398116 8.87579582,16.4085244 C9.93980974,15.3889188 11.4086032,14.3392993 13.3263295,13.7146729 C13.9781624,15.5418979 14.5679768,17.6306729 15.0172668,19.9819165 C14.0707564,20.3423387 13.0480371,20.5426868 11.9770302,20.5426868 Z M16.8242274,19.0218794 C16.3896891,16.8954339 15.8434153,14.9779629 15.2435963,13.266761 C15.7998237,13.1869791 16.3837169,13.1419582 17.0000232,13.1419582 L17.0221763,13.1419582 L17.0236056,13.1419582 L17.0250348,13.1419582 C18.046529,13.1419582 19.1690394,13.2689049 20.3863898,13.5455128 C19.9649698,15.8100835 18.65329,17.7604269 16.8242274,19.0218794 Z"/>
  </g>
</svg>
