<svg xmlns="http://www.w3.org/2000/svg" data-name="Layer 1" viewBox="0 0 100 125" x="0px" y="0px"><title>Artboard 30</title><path d="M91.46,36.09a38,38,0,0,0-35.13-35A37.61,37.61,0,0,0,27.8,11.19a38,38,0,0,0-12,27.71,12.61,12.61,0,0,1-1.1,5.16L9,56.69a6.8,6.8,0,0,0,4.07,9.22l2.65.88V77a10,10,0,0,0,10,10H36l1.94,6.81a7.24,7.24,0,0,0,9,5L82.17,88.65a7.25,7.25,0,0,0,5-9L82.52,63.46A38.05,38.05,0,0,0,91.46,36.09Zm-16,23.71L73.94,61.4l5.7,20L45.21,91.21l-3.41-12H25.72A2.28,2.28,0,0,1,23.44,77V65.21A5.5,5.5,0,0,0,19.66,60l-3.21-1.06L21.67,47.2a20.24,20.24,0,0,0,1.76-8.29A30.22,30.22,0,0,1,55.8,8.76a30.28,30.28,0,0,1,28,27.89A29.94,29.94,0,0,1,75.47,59.81ZM53.62,19.12A19.8,19.8,0,0,0,38.21,51.36a16.19,16.19,0,0,1-2.79,5.41,1.27,1.27,0,0,0,1.06,2,22.6,22.6,0,0,0,8.72-2,19.81,19.81,0,1,0,8.42-37.74ZM45.88,41.67a2.7,2.7,0,1,1,2.7-2.7A2.7,2.7,0,0,1,45.88,41.67Zm7.74,0a2.7,2.7,0,1,1,2.7-2.7A2.7,2.7,0,0,1,53.62,41.67Zm7.74,0a2.7,2.7,0,1,1,2.7-2.7A2.7,2.7,0,0,1,61.36,41.67Z"/><text x="0" y="115" fill="#000000" font-size="5px" font-weight="bold" font-family="'Helvetica Neue', Helvetica, Arial-Unicode, Arial, Sans-serif">Created by Gregor Cresnar</text><text x="0" y="120" fill="#000000" font-size="5px" font-weight="bold" font-family="'Helvetica Neue', Helvetica, Arial-Unicode, Arial, Sans-serif">from the Noun Project</text></svg>