<?xml version="1.0" ?><!DOCTYPE svg  PUBLIC '-//W3C//DTD SVG 1.1//EN'  'http://www.w3.org/Graphics/SVG/1.1/DTD/svg11.dtd'><svg enable-background="new 0 0 512 512" id="Layer_1" version="1.1" viewBox="0 0 512 512" xml:space="preserve" xmlns="http://www.w3.org/2000/svg" xmlns:xlink="http://www.w3.org/1999/xlink"><g><circle cx="256" cy="256" fill="#FF3366" r="256"/><path d="M192.5,146.8c11.3,0,20.7,8.8,20.7,20.4c0,11.6-9.4,20.4-20.7,20.4   c-11.3,0-20.7-8.8-20.7-20.4C171.8,155.7,181.2,146.8,192.5,146.8z M330.8,341.7c-21,0-31-12.5-31-29.5c0-4.9,0.6-10,2.1-15.2   l10-35.9c1.2-4,1.5-7.6,1.5-10.9c0-11.5-7-18.5-18.2-18.5c-14.3,0-23.7,10.3-28.6,30l-19.5,78.1h-34l6.1-24.5   c-10,16.4-23.9,26.6-41.1,26.6c-20.7,0-30.4-11.9-30.4-29.9c0-4.6,0.6-10.1,1.8-15.3l15.5-63.4h-24l7.3-26.9h57.8l-22.8,90.5   c-1.5,5.8-2.1,10.6-2.1,13.9c0,5.8,2.8,7.5,7.3,8.5c2.7,0.6,24.3,0.2,36.1-26l15-60h-24.3l7.3-26.9h52l-6.7,30.6   c9.1-17,27.4-33.2,45.3-33.2c19.1,0,35,13.6,35,39.8c0,6.7-0.9,14-3.4,22.2l-9.7,35c-0.9,3.7-1.5,6.7-1.5,9.4c0,6.1,2.4,9.1,7,9.1   c4.6,0,10.3-3.4,17-21.9l13.4,5.2C363,330.2,348.7,341.7,330.8,341.7z" fill="#FFFFFF" id="Invision_1_"/></g></svg>