<svg xmlns="http://www.w3.org/2000/svg" width="32" height="32" viewBox="0 0 32 32">
  <path fill="#FFF" fill-rule="evenodd" d="M39.9999872,42.5903398 C33.7973491,42.5903398 28.722475,36.07049 28.722475,36.07049 C28.722475,36.07049 33.7621744,29.5506403 39.9999872,29.5506403 C46.2379279,29.5506403 51.2774994,36.07049 51.2774994,36.07049 C51.2774994,36.07049 46.2026253,42.5903398 39.9999872,42.5903398 Z M44.6229303,35.9648337 C44.6229303,33.411598 42.5532357,31.3417588 40,31.3417588 C37.4467643,31.3417588 35.3770697,33.411598 35.3770697,35.9648337 C35.3770697,38.5179247 37.4467643,40.5877639 40,40.5877639 C42.5532357,40.5877639 44.6229303,38.5179247 44.6229303,35.9648337 Z M40,33.4938854 C41.3647053,33.4938854 42.4709339,34.6001139 42.4709339,35.9648192 C42.4709339,37.3295246 41.3647053,38.4357531 40,38.4357531 C38.6352947,38.4357531 37.5290661,37.3295246 37.5290661,35.9648192 C37.5290661,34.6001139 38.6352947,33.4938854 40,33.4938854 Z M26.4669598,36 C26.4669598,28.5286434 32.5286434,22.4670877 40,22.4670877 C47.4713566,22.4670877 53.5330402,28.5286434 53.5330402,36 C53.5330402,43.4361819 47.4713566,49.5330402 40,49.5330402 C32.5286434,49.5330402 26.4669598,43.4713566 26.4669598,36 Z M24,36 C24,44.8105524 31.1894476,52 40,52 C48.8105524,52 56,44.8457271 56,36 C56,27.1542729 48.8105524,20 40,20 C31.1894476,20 24,27.1894476 24,36 Z" transform="translate(-24 -20)"/>
</svg>
