<svg xmlns="http://www.w3.org/2000/svg" width="24" height="24" viewBox="0 0 24 24">
  <path fill="#FFF" fill-rule="evenodd" d="M44.4581246,36.0528675 C44.4581246,36.0528675 40.651969,40.9427548 35.9999904,40.9427548 C31.3480118,40.9427548 27.5418563,36.0528675 27.5418563,36.0528675 C27.5418563,36.0528675 31.3216308,31.1629803 35.9999904,31.1629803 C40.6784459,31.1629803 44.4581246,36.0528675 44.4581246,36.0528675 Z M36,32.9074746 C34.3066272,32.9074746 32.9339516,34.2802462 32.9339516,35.973619 C32.9339516,37.6668958 34.3066272,39.0396674 36,39.0396674 C37.6933728,39.0396674 39.0660484,37.6668958 39.0660484,35.973619 C39.0660484,34.2802462 37.6933728,32.9074746 36,32.9074746 Z M36,34.3348213 C36.9051083,34.3348213 37.6387881,35.0685011 37.6387881,35.9736094 C37.6387881,36.8787177 36.9051083,37.6123975 36,37.6123975 C35.0948917,37.6123975 34.3612119,36.8787177 34.3612119,35.9736094 C34.3612119,35.0685011 35.0948917,34.3348213 36,34.3348213 Z M36,46.1497802 C30.3964825,46.1497802 25.8502198,41.6035175 25.8502198,36 C25.8502198,30.3964825 30.3964825,25.8503158 36,25.8503158 C41.6035175,25.8503158 46.1497802,30.3964825 46.1497802,36 C46.1497802,41.5771365 41.6035175,46.1497802 36,46.1497802 M36,24 C29.3920857,24 24,29.3920857 24,36 C24,42.6079143 29.3920857,48 36,48 C42.6079143,48 48,42.6342953 48,36 C48,29.3657047 42.6079143,24 36,24" transform="translate(-24 -24)"/>
</svg>
