<?xml version="1.0" encoding="iso-8859-1"?>
<!-- Generator: Adobe Illustrator 19.0.0, SVG Export Plug-In . SVG Version: 6.00 Build 0)  -->
<svg version="1.1" id="Layer_1" xmlns="http://www.w3.org/2000/svg" xmlns:xlink="http://www.w3.org/1999/xlink" x="0px" y="0px"
	 viewBox="0 0 490.738 490.738" style="enable-background:new 0 0 490.738 490.738;" xml:space="preserve">
<g id="XMLID_669_">
	<g>
		<g>
			<rect x="208.077" y="347.292" width="15.1" height="30.199"/>
			<rect x="268.475" y="347.292" width="15.1" height="30.199"/>
			<rect x="306.225" y="234.044" width="22.649" height="15.1"/>
			<path d="M329.905,0H160.832C119.77,0,86.366,33.405,86.366,74.466v311.606c0,33.876,22.746,62.521,53.762,71.516v33.15h15.1
				v-30.432c1.853,0.139,3.717,0.233,5.605,0.233h169.073c2.108,0,4.19-0.11,6.255-0.282v30.481h15.1v-33.335
				c30.684-9.203,53.112-37.691,53.112-71.331V74.466C404.371,33.405,370.967,0,329.905,0z M374.171,60.398V34.964
				c9.383,10.502,15.1,24.345,15.1,39.502v16.131h-15.1V60.398z M101.465,74.466c0-32.735,26.632-59.366,59.366-59.366h169.073
				c15.158,0,29,5.718,39.503,15.1h-93.383v15.1h-30.2v45.299H101.465V74.466z M291.124,60.398v-15.1h67.948v15.1H291.124z
				 M359.072,75.498v15.1h-67.948v-15.1H359.072z M276.025,60.398v7.55v22.649h-15.101V60.398H276.025z M101.464,105.697h174.56
				h98.147h15.1v75.499H223.176v-45.299h-30.199h-7.55h-22.65v-15.1h-30.199h-7.55h-23.563V105.697z M208.077,150.996v30.2h-15.1
				v-30.2H208.077z M177.876,150.996v30.2h-15.1v-30.2H177.876z M147.678,135.896v45.299h-15.1v-45.299H147.678z M101.465,135.897
				h16.013v45.299h-16.013V135.897z M238.275,445.439h-77.443c-32.735,0-59.367-26.631-59.367-59.366v-99.18h136.81V445.439z
				 M389.272,386.073c-0.001,32.735-26.632,59.366-59.368,59.366h-76.529V286.893h135.897V386.073z M283.574,271.793v-45.299h67.948
				v45.299H283.574z M389.272,271.794h-22.649v-45.299h7.549v-15.1H260.926v15.1h7.55v45.299h-167.01v-75.498h287.807V271.794z"/>
		</g>
	</g>
</g>
<g>
</g>
<g>
</g>
<g>
</g>
<g>
</g>
<g>
</g>
<g>
</g>
<g>
</g>
<g>
</g>
<g>
</g>
<g>
</g>
<g>
</g>
<g>
</g>
<g>
</g>
<g>
</g>
<g>
</g>
</svg>
