<?xml version="1.0" encoding="utf-8"?>
<!-- Generator: Adobe Illustrator 21.1.0, SVG Export Plug-In . SVG Version: 6.00 Build 0)  -->
<svg version="1.1" id="Layer_1" xmlns="http://www.w3.org/2000/svg" xmlns:xlink="http://www.w3.org/1999/xlink" x="0px" y="0px"
	 viewBox="0 0 502 502" style="enable-background:new 0 0 502 502;" xml:space="preserve">
<style type="text/css">
	.st0{fill:none;stroke:#3D3D3D;stroke-width:16;stroke-miterlimit:10;}
	.st1{fill:none;stroke:#3D3D3D;stroke-width:8;stroke-miterlimit:10;}
	.st2{fill:none;stroke:#3D3D3D;stroke-width:8;stroke-linecap:round;stroke-miterlimit:10;}
	.st3{fill:#3D3D3D;}
</style>
<rect x="55.5" y="313.3" class="st0" width="391" height="45"/>
<line class="st0" x1="152.5" y1="358.3" x2="152.5" y2="433.3"/>
<line class="st0" x1="359.5" y1="358.3" x2="359.5" y2="433.3"/>
<rect x="102.1" y="119.3" class="st0" width="51" height="194"/>
<rect x="204.1" y="119.3" class="st0" width="51" height="194"/>
<rect x="306.1" y="119.3" class="st0" width="51" height="194"/>
<rect x="255.1" y="169" class="st0" width="51" height="144.3"/>
<rect x="357.1" y="146" class="st0" width="51" height="167.3"/>
<rect x="153.1" y="83.7" class="st0" width="51" height="229.6"/>
<line class="st1" x1="102.1" y1="271.3" x2="153.1" y2="271.3"/>
<line class="st1" x1="102.1" y1="253.9" x2="153.1" y2="253.9"/>
<line class="st1" x1="102.1" y1="174.6" x2="153.1" y2="174.6"/>
<line class="st1" x1="102.1" y1="156.8" x2="153.1" y2="156.8"/>
<g>
	<path class="st2" d="M184.3,137.8c0,11.1-11.3,11.1-11.3,22.2c0,11.1,11.3,11.1,11.3,22.2c0,11.1-11.3,11.1-11.3,22.2
		c0,11.1,11.3,11.1,11.3,22.2c0,11.1-11.3,11.1-11.3,22.3c0,11.1,11.3,11.1,11.3,22.3"/>
</g>
<line class="st2" x1="331.6" y1="149.5" x2="331.6" y2="283"/>
<line class="st1" x1="257" y1="220.3" x2="300.6" y2="176.7"/>
<line class="st1" x1="257" y1="313.3" x2="300.6" y2="269.7"/>
<circle class="st3" cx="229.6" cy="216.3" r="5.3"/>
<circle class="st3" cx="382.6" cy="229.6" r="5.3"/>
</svg>
